<?xml version="1.0" encoding="UTF-8" standalone="no"?>
<!-- Created with Inkscape (http://www.inkscape.org/) -->

<svg
   width="53.882339mm"
   height="51.077126mm"
   viewBox="0 0 53.882339 51.077126"
   version="1.1"
   id="svg2268"
   inkscape:version="1.1.2 (0a00cf5339, 2022-02-04)"
   sodipodi:docname="02-grouping.svg"
   xmlns:inkscape="http://www.inkscape.org/namespaces/inkscape"
   xmlns:sodipodi="http://sodipodi.sourceforge.net/DTD/sodipodi-0.dtd"
   xmlns="http://www.w3.org/2000/svg"
   xmlns:svg="http://www.w3.org/2000/svg">
  <sodipodi:namedview
     id="namedview2270"
     pagecolor="#ffffff"
     bordercolor="#666666"
     borderopacity="1.0"
     inkscape:pageshadow="2"
     inkscape:pageopacity="0.0"
     inkscape:pagecheckerboard="0"
     inkscape:document-units="mm"
     showgrid="false"
     fit-margin-top="0"
     fit-margin-left="0"
     fit-margin-right="0"
     fit-margin-bottom="0"
     inkscape:zoom="0.57370932"
     inkscape:cx="-237.05385"
     inkscape:cy="78.436935"
     inkscape:window-width="3840"
     inkscape:window-height="2111"
     inkscape:window-x="3839"
     inkscape:window-y="0"
     inkscape:window-maximized="1"
     inkscape:current-layer="layer1" />
  <defs
     id="defs2265" />
  <g
     inkscape:label="Layer 1"
     inkscape:groupmode="layer"
     id="layer1"
     transform="translate(-16.409761,-127.57324)">
    <g
       id="g159781"
       transform="matrix(0.35277777,0,0,0.35277777,-67.696077,45.974253)">
      <path
         style="opacity:0.6;fill:#c7c8ca;fill-opacity:0.502;stroke-width:0;stroke-linecap:round;stroke-linejoin:round;stroke-miterlimit:10;stroke-opacity:0.502"
         d="m 363.7,242.7 c -7.6,0 -16.8,-0.2 -21.8,6.5 -7,12.7 -19.5,20.6 -28.9,31.1 -16,16.1 -32.6,32 -44.5,51.4 -3.4,6.6 -8.1,13 -8.2,20.7 2.3,6.5 10.3,3.9 14.9,1.6 10.1,-4.6 20.2,-9.5 30,-14.8 6.4,-3.5 13.4,-6 20.1,-9.1 15.9,-9 32.3,-17.1 49.4,-23.8 6.4,-3 14.8,-6.2 15.9,-14.2 1.8,-9.2 -1.5,-18.4 -0.5,-27.7 0.2,-6.2 0.3,-13.1 -3.3,-18.5 -4.4,-3.2 -9.9,-3.6 -15.1,-3.2 -2.7,0 -5.3,0 -8,0 z"
         id="path2444"
         sodipodi:nodetypes="sccccccscscss" />
      <path
         style="fill:#f58a1f;fill-opacity:0.502;stroke-width:0;stroke-linecap:round;stroke-linejoin:round;stroke-miterlimit:10;stroke-opacity:0.5"
         d="m 360.7,336.5 c 0.8,-1.9 2.8,-2.4 4.6,-2.4 2,0 3.8,0.4 5.6,0.8 2.3,1.9 2.5,5.9 0.5,8.2 -1.1,1.5 -3.1,2.4 -5,2.3 -3.3,0 -6.4,-2.7 -6.5,-6.1 0,-1 0.3,-1.9 0.8,-2.8 z"
         id="path2448"
         sodipodi:nodetypes="cssssc" />
      <path
         style="fill:none;stroke:#000000;stroke-width:0.779528;stroke-linecap:round;stroke-linejoin:round;stroke-miterlimit:10"
         d="m 253.9,244.7 v 131"
         id="path21404" />
      <path
         style="fill:none;stroke:#000000;stroke-width:0.779489;stroke-linecap:round;stroke-linejoin:round;stroke-miterlimit:10"
         d="M 238.8,359.7 H 385.3"
         id="path21406" />
      <path
         style="fill:none;stroke:#000000;stroke-width:1.29921;stroke-linecap:round;stroke-linejoin:round;stroke-miterlimit:10"
         d="m 273.5,343.8 v 0"
         id="path21410"
         sodipodi:nodetypes="cc" />
      <path
         style="fill:none;stroke:#000000;stroke-width:1.29921;stroke-linecap:round;stroke-linejoin:round;stroke-miterlimit:10"
         d="m 286,332.8 v 0"
         id="path21412"
         sodipodi:nodetypes="cc" />
      <path
         style="fill:none;stroke:#000000;stroke-width:1.29914;stroke-linecap:round;stroke-linejoin:round;stroke-miterlimit:10"
         d="m 295.2,325.1 v 0"
         id="path21414"
         sodipodi:nodetypes="cc" />
      <path
         style="fill:none;stroke:#000000;stroke-width:1.29921;stroke-linecap:round;stroke-linejoin:round;stroke-miterlimit:10"
         d="m 309.1,314.8 v 0"
         id="path21416"
         sodipodi:nodetypes="cc" />
      <path
         style="fill:none;stroke:#000000;stroke-width:1.29921;stroke-linecap:round;stroke-linejoin:round;stroke-miterlimit:10"
         d="m 289.5,314.5 v 0"
         id="path21418"
         sodipodi:nodetypes="cc" />
      <path
         style="fill:none;stroke:#000000;stroke-width:1.29921;stroke-linecap:round;stroke-linejoin:round;stroke-miterlimit:10"
         d="m 297.8,331.9 v 0"
         id="path21420"
         sodipodi:nodetypes="cc" />
      <path
         style="fill:none;stroke:#000000;stroke-width:1.29921;stroke-linecap:round;stroke-linejoin:round;stroke-miterlimit:10"
         d="m 274.3,332.4 v 0"
         id="path21422"
         sodipodi:nodetypes="cc" />
      <path
         style="fill:none;stroke:#000000;stroke-width:1.29921;stroke-linecap:round;stroke-linejoin:round;stroke-miterlimit:10"
         d="m 286,343 v 0"
         id="path21424"
         sodipodi:nodetypes="cc" />
      <path
         style="fill:none;stroke:#000000;stroke-width:1.29921;stroke-linecap:round;stroke-linejoin:round;stroke-miterlimit:10"
         d="m 320.2,320.3 v 0"
         id="path21426"
         sodipodi:nodetypes="cc" />
      <path
         style="fill:none;stroke:#000000;stroke-width:1.29921;stroke-linecap:round;stroke-linejoin:round;stroke-miterlimit:10"
         d="m 309.7,304.8 v 0"
         id="path21428"
         sodipodi:nodetypes="cc" />
      <path
         style="fill:none;stroke:#000000;stroke-width:1.29921;stroke-linecap:round;stroke-linejoin:round;stroke-miterlimit:10"
         d="m 299.4,313.1 v 0"
         id="path21430"
         sodipodi:nodetypes="cc" />
      <path
         style="fill:none;stroke:#000000;stroke-width:1.29921;stroke-linecap:round;stroke-linejoin:round;stroke-miterlimit:10"
         d="m 308,324.2 v 0"
         id="path21432"
         sodipodi:nodetypes="cc" />
      <path
         style="fill:none;stroke:#000000;stroke-width:1.29921;stroke-linecap:round;stroke-linejoin:round;stroke-miterlimit:10"
         d="m 324,296.3 v 0"
         id="path21434"
         sodipodi:nodetypes="cc" />
      <path
         style="fill:none;stroke:#000000;stroke-width:1.29921;stroke-linecap:round;stroke-linejoin:round;stroke-miterlimit:10"
         d="m 308.3,293 v 0"
         id="path21436"
         sodipodi:nodetypes="cc" />
      <path
         style="fill:none;stroke:#000000;stroke-width:1.29921;stroke-linecap:round;stroke-linejoin:round;stroke-miterlimit:10"
         d="m 325,280.3 v 0"
         id="path21438"
         sodipodi:nodetypes="cc" />
      <path
         style="fill:none;stroke:#000000;stroke-width:1.29921;stroke-linecap:round;stroke-linejoin:round;stroke-miterlimit:10"
         d="m 331.6,300.3 v 0"
         id="path21440"
         sodipodi:nodetypes="cc" />
      <path
         style="fill:none;stroke:#000000;stroke-width:1.29921;stroke-linecap:round;stroke-linejoin:round;stroke-miterlimit:10"
         d="m 323,311.2 v 0"
         id="path21442"
         sodipodi:nodetypes="cc" />
      <path
         style="fill:none;stroke:#000000;stroke-width:1.29921;stroke-linecap:round;stroke-linejoin:round;stroke-miterlimit:10"
         d="m 338.1,310.7 v 0"
         id="path21444"
         sodipodi:nodetypes="cc" />
      <path
         style="fill:none;stroke:#000000;stroke-width:1.29921;stroke-linecap:round;stroke-linejoin:round;stroke-miterlimit:10"
         d="m 349.3,300.3 v 0"
         id="path21446"
         sodipodi:nodetypes="cc" />
      <path
         style="fill:none;stroke:#000000;stroke-width:1.29921;stroke-linecap:round;stroke-linejoin:round;stroke-miterlimit:10"
         d="m 368.5,290.8 v 0"
         id="path21448"
         sodipodi:nodetypes="cc" />
      <path
         style="fill:none;stroke:#000000;stroke-width:1.29921;stroke-linecap:round;stroke-linejoin:round;stroke-miterlimit:10"
         d="m 380.7,285.6 v 0"
         id="path21450"
         sodipodi:nodetypes="cc" />
      <path
         style="fill:none;stroke:#000000;stroke-width:1.29921;stroke-linecap:round;stroke-linejoin:round;stroke-miterlimit:10"
         d="m 353.7,283.3 v 0"
         id="path21452"
         sodipodi:nodetypes="cc" />
      <path
         style="fill:none;stroke:#000000;stroke-width:1.29921;stroke-linecap:round;stroke-linejoin:round;stroke-miterlimit:10"
         d="m 372.3,267.7 v 0"
         id="path21454"
         sodipodi:nodetypes="cc" />
      <path
         style="fill:none;stroke:#000000;stroke-width:1.29921;stroke-linecap:round;stroke-linejoin:round;stroke-miterlimit:10"
         d="m 369,280.3 v 0"
         id="path21456"
         sodipodi:nodetypes="cc" />
      <path
         style="fill:none;stroke:#000000;stroke-width:1.29921;stroke-linecap:round;stroke-linejoin:round;stroke-miterlimit:10"
         d="m 379.9,248.9 v 0"
         id="path21458"
         sodipodi:nodetypes="cc" />
      <path
         style="fill:none;stroke:#000000;stroke-width:1.29921;stroke-linecap:round;stroke-linejoin:round;stroke-miterlimit:10"
         d="m 363.4,252.8 v 0"
         id="path21460"
         sodipodi:nodetypes="cc" />
      <path
         style="fill:none;stroke:#000000;stroke-width:1.29921;stroke-linecap:round;stroke-linejoin:round;stroke-miterlimit:10"
         d="m 371.8,243.3 v 0"
         id="path21462"
         sodipodi:nodetypes="cc" />
      <path
         style="fill:none;stroke:#000000;stroke-width:1.29921;stroke-linecap:round;stroke-linejoin:round;stroke-miterlimit:10"
         d="m 348.2,252.8 v 0"
         id="path21464"
         sodipodi:nodetypes="cc" />
      <path
         style="fill:none;stroke:#000000;stroke-width:1.29921;stroke-linecap:round;stroke-linejoin:round;stroke-miterlimit:10"
         d="m 333.6,267.1 v 0"
         id="path21466"
         sodipodi:nodetypes="cc" />
      <path
         style="fill:none;stroke:#000000;stroke-width:1.29921;stroke-linecap:round;stroke-linejoin:round;stroke-miterlimit:10"
         d="m 335.1,276.5 v 0"
         id="path21468"
         sodipodi:nodetypes="cc" />
      <path
         style="fill:none;stroke:#000000;stroke-width:1.29921;stroke-linecap:round;stroke-linejoin:round;stroke-miterlimit:10"
         d="m 352.8,268.5 v 0"
         id="path21470"
         sodipodi:nodetypes="cc" />
      <path
         style="fill:none;stroke:#000000;stroke-width:1.29921;stroke-linecap:round;stroke-linejoin:round;stroke-miterlimit:10"
         d="m 340.1,288 v 0"
         id="path21472"
         sodipodi:nodetypes="cc" />
      <path
         style="fill:none;stroke:#000000;stroke-width:1.29921;stroke-linecap:round;stroke-linejoin:round;stroke-miterlimit:10"
         d="m 332.4,295.8 v 0"
         id="path21474"
         sodipodi:nodetypes="cc" />
      <path
         style="fill:none;stroke:#000000;stroke-width:1.29921;stroke-linecap:round;stroke-linejoin:round;stroke-miterlimit:10"
         d="m 362.8,339.5 v 0"
         id="path21476"
         sodipodi:nodetypes="cc" />
      <path
         style="fill:none;stroke:#000000;stroke-width:1.29921;stroke-linecap:round;stroke-linejoin:round;stroke-miterlimit:10"
         d="m 367.1,337.6 v 0"
         id="path21478"
         sodipodi:nodetypes="cc" />
      <path
         style="fill:none;stroke:#000000;stroke-width:1.29921;stroke-linecap:round;stroke-linejoin:round;stroke-miterlimit:10"
         d="m 367.1,342.2 v 0"
         id="path21480"
         sodipodi:nodetypes="cc" />
      <path
         style="fill:none;stroke:#000000;stroke-width:1.29921;stroke-linecap:round;stroke-linejoin:round;stroke-miterlimit:10"
         d="m 342.7,249.7 v 0"
         id="path21482"
         sodipodi:nodetypes="cc" />
      <path
         style="fill:none;stroke:#000000;stroke-width:1.29921;stroke-linecap:round;stroke-linejoin:round;stroke-miterlimit:10"
         d="m 331.8,322.8 v 0"
         id="path21484"
         sodipodi:nodetypes="cc" />
      <path
         style="fill:none;stroke:#000000;stroke-width:1.29921;stroke-linecap:round;stroke-linejoin:round;stroke-miterlimit:10"
         d="m 347,316.3 v 0"
         id="path21486"
         sodipodi:nodetypes="cc" />
      <path
         style="fill:none;stroke:#000000;stroke-width:1.29921;stroke-linecap:round;stroke-linejoin:round;stroke-miterlimit:10"
         d="m 367.7,305.3 v 0"
         id="path21488"
         sodipodi:nodetypes="cc" />
      <path
         style="fill:none;stroke:#000000;stroke-width:1.29921;stroke-linecap:round;stroke-linejoin:round;stroke-miterlimit:10"
         d="m 379.9,297.8 v 0"
         id="path21490"
         sodipodi:nodetypes="cc" />
      <path
         style="fill:none;stroke:#000000;stroke-width:1.29921;stroke-linecap:round;stroke-linejoin:round;stroke-miterlimit:10"
         d="m 312.4,334.7 v 0"
         id="path21492"
         sodipodi:nodetypes="cc" />
      <path
         style="fill:none;stroke:#000000;stroke-width:1.29914;stroke-linecap:round;stroke-linejoin:round;stroke-miterlimit:10"
         d="m 280.7,324.1 v 0"
         id="path21494"
         sodipodi:nodetypes="cc" />
      <path
         style="fill:none;stroke:#000000;stroke-width:1.29921;stroke-linecap:round;stroke-linejoin:round;stroke-miterlimit:10"
         d="m 263.9,349.6 v 0"
         id="path21496"
         sodipodi:nodetypes="cc" />
      <path
         style="fill:none;stroke:#000000;stroke-width:1.29921;stroke-linecap:round;stroke-linejoin:round;stroke-miterlimit:10"
         d="m 262.6,342.7 v 0"
         id="path21498"
         sodipodi:nodetypes="cc" />
      <path
         style="fill:none;stroke:#000000;stroke-width:1.29921;stroke-linecap:round;stroke-linejoin:round;stroke-miterlimit:10"
         d="m 269.1,354.3 v 0"
         id="path21500"
         sodipodi:nodetypes="cc" />
      <text
         xml:space="preserve"
         style="font-size:15px;line-height:1em;font-family:handlee;-inkscape-font-specification:'handlee, Normal';letter-spacing:0.75px;word-spacing:0px;text-anchor:middle;stroke-width:0.75"
         x="285"
         y="260.20001"
         id="text25192"><tspan
           sodipodi:role="line"
           id="tspan25190"
           x="285"
           y="260.20001"
           style="font-family:'handlee';">gestalt</tspan><tspan
           sodipodi:role="line"
           x="285.375"
           y="275.20001"
           id="tspan25194"
           style="font-family:'handlee';">grouping</tspan></text>
      <g
         id="g33089"
         transform="translate(171)"
         style="opacity:0.5">
        <g
           id="g33033"
           transform="rotate(-90,76,297.4)">
          <g
             id="use33015"
             transform="translate(54.169998,301.79999)">
            <path
               d="M 1.625,-1.266 2.813,-3.109 H 2.344 L 1.437,-1.625 0.5,-3.109 H 0.0156 L 1.219,-1.266 V 0 h 0.406 z m 0,0"
               id="path2730" />
          </g>
          <g
             id="use33017"
             transform="translate(58.209999,301.79999)">
            <path
               d="m 1.562,0 1.11,-3.109 H 2.234 l -0.89,2.6871 H 1.328 L 0.4375,-3.109 H 0 L 1.094,0 Z m 0,0"
               id="path2738" />
          </g>
          <g
             id="use33019"
             transform="translate(60.639999,301.79999)">
            <path
               d="M 2.281,-0.0156 C 2.219,0.0234 2.129,0.0469 2.016,0.0469 1.91,0.0469 1.832,0.0195 1.781,-0.0312 1.727,-0.082 1.703,-0.1719 1.703,-0.2969 1.598,-0.1719 1.477,-0.082 1.344,-0.0312 1.207,0.0195 1.062,0.0469 0.9063,0.0469 0.8008,0.0469 0.7031,0.0352 0.6094,0.0156 0.5156,-0.0039 0.4375,-0.0391 0.375,-0.0937 0.3125,-0.1445 0.2578,-0.207 0.2187,-0.2812 0.1758,-0.3633 0.1562,-0.4609 0.1562,-0.5781 c 0,-0.125 0.0196,-0.2266 0.0625,-0.3125 C 0.2578,-0.9727 0.3164,-1.039 0.3906,-1.094 0.4609,-1.145 0.5469,-1.18 0.6406,-1.203 0.7344,-1.234 0.8281,-1.254 0.9219,-1.266 1.023,-1.285 1.117,-1.301 1.203,-1.312 1.297,-1.32 1.379,-1.336 1.453,-1.359 1.523,-1.379 1.578,-1.406 1.609,-1.437 1.648,-1.477 1.672,-1.535 1.672,-1.609 1.672,-1.68 1.656,-1.742 1.625,-1.797 1.602,-1.848 1.566,-1.883 1.516,-1.906 1.461,-1.937 1.406,-1.957 1.344,-1.969 1.289,-1.977 1.234,-1.984 1.172,-1.984 c -0.156,0 -0.2892,0.031 -0.3908,0.093 -0.1054,0.063 -0.164,0.18 -0.1718,0.344 H 0.25 c 0,-0.144 0.0234,-0.265 0.0781,-0.359 C 0.3789,-2 0.4453,-2.078 0.5312,-2.141 0.625,-2.203 0.7227,-2.242 0.8281,-2.266 0.9414,-2.297 1.066,-2.313 1.203,-2.313 c 0.094,0 0.192,0.012 0.297,0.032 0.102,0.011 0.191,0.043 0.266,0.093 0.082,0.043 0.148,0.106 0.203,0.188 0.051,0.074 0.078,0.18 0.078,0.313 v 1.1558 c 0,0.0937 0.004,0.164 0.016,0.2031 0.007,0.0312 0.039,0.0469 0.093,0.0469 0.032,0 0.071,-0.004 0.125,-0.0157 z M 1.672,-1.156 C 1.629,-1.125 1.566,-1.098 1.484,-1.078 1.41,-1.066 1.332,-1.055 1.25,-1.047 1.164,-1.035 1.082,-1.023 1,-1.016 c -0.0859,0.012 -0.1641,0.0316 -0.2344,0.0629 -0.0625,0.0312 -0.1172,0.0742 -0.1562,0.125 -0.043,0.0547 -0.0625,0.125 -0.0625,0.2187 0,0.0625 0.0078,0.1172 0.0312,0.1563 0.0313,0.0429 0.0625,0.0781 0.0938,0.1094 0.039,0.0234 0.0859,0.039 0.1406,0.0468 0.0508,0.0117 0.1094,0.0157 0.1719,0.0157 0.1246,0 0.2266,-0.0157 0.3126,-0.0469 0.094,-0.0313 0.164,-0.0703 0.219,-0.125 0.05,-0.0508 0.086,-0.1016 0.109,-0.1563 0.031,-0.0625 0.047,-0.1172 0.047,-0.1718 z m 0,0"
               id="path2742" />
          </g>
          <g
             id="use33021"
             transform="translate(62.98,301.79999)">
            <path
               d="M 0.2656,-2.25 V 0 h 0.375 v -1 c 0,-0.145 0.0078,-0.273 0.0313,-0.391 C 0.7031,-1.504 0.75,-1.598 0.8125,-1.672 0.8828,-1.754 0.9727,-1.812 1.078,-1.844 1.18,-1.883 1.305,-1.906 1.453,-1.906 v -0.407 c -0.199,0 -0.367,0.047 -0.4999,0.141 -0.125,0.086 -0.2344,0.215 -0.3281,0.391 H 0.6094 V -2.25 Z m 0,0"
               id="path2686" />
          </g>
          <g
             id="use33023"
             transform="translate(64.43,301.79999)">
            <path
               d="m 0.6719,-2.656 v -0.453 h -0.375 v 0.453 z M 0.2969,-2.25 V 0 h 0.375 v -2.25 z m 0,0"
               id="path2694" />
          </g>
          <g
             id="use33025"
             transform="translate(65.400002,301.79999)">
            <path
               d="M 2.281,-0.0156 C 2.219,0.0234 2.129,0.0469 2.016,0.0469 1.91,0.0469 1.832,0.0195 1.781,-0.0312 1.727,-0.082 1.703,-0.1719 1.703,-0.2969 1.598,-0.1719 1.477,-0.082 1.344,-0.0312 1.207,0.0195 1.062,0.0469 0.9063,0.0469 0.8008,0.0469 0.7031,0.0352 0.6094,0.0156 0.5156,-0.0039 0.4375,-0.0391 0.375,-0.0937 0.3125,-0.1445 0.2578,-0.207 0.2187,-0.2812 0.1758,-0.3633 0.1562,-0.4609 0.1562,-0.5781 c 0,-0.125 0.0196,-0.2266 0.0625,-0.3125 C 0.2578,-0.9727 0.3164,-1.039 0.3906,-1.094 0.4609,-1.145 0.5469,-1.18 0.6406,-1.203 0.7344,-1.234 0.8281,-1.254 0.9219,-1.266 1.023,-1.285 1.117,-1.301 1.203,-1.312 1.297,-1.32 1.379,-1.336 1.453,-1.359 1.523,-1.379 1.578,-1.406 1.609,-1.437 1.648,-1.477 1.672,-1.535 1.672,-1.609 1.672,-1.68 1.656,-1.742 1.625,-1.797 1.602,-1.848 1.566,-1.883 1.516,-1.906 1.461,-1.937 1.406,-1.957 1.344,-1.969 1.289,-1.977 1.234,-1.984 1.172,-1.984 c -0.156,0 -0.2892,0.031 -0.3908,0.093 -0.1054,0.063 -0.164,0.18 -0.1718,0.344 H 0.25 c 0,-0.144 0.0234,-0.265 0.0781,-0.359 C 0.3789,-2 0.4453,-2.078 0.5312,-2.141 0.625,-2.203 0.7227,-2.242 0.8281,-2.266 0.9414,-2.297 1.066,-2.313 1.203,-2.313 c 0.094,0 0.192,0.012 0.297,0.032 0.102,0.011 0.191,0.043 0.266,0.093 0.082,0.043 0.148,0.106 0.203,0.188 0.051,0.074 0.078,0.18 0.078,0.313 v 1.1558 c 0,0.0937 0.004,0.164 0.016,0.2031 0.007,0.0312 0.039,0.0469 0.093,0.0469 0.032,0 0.071,-0.004 0.125,-0.0157 z M 1.672,-1.156 C 1.629,-1.125 1.566,-1.098 1.484,-1.078 1.41,-1.066 1.332,-1.055 1.25,-1.047 1.164,-1.035 1.082,-1.023 1,-1.016 c -0.0859,0.012 -0.1641,0.0316 -0.2344,0.0629 -0.0625,0.0312 -0.1172,0.0742 -0.1562,0.125 -0.043,0.0547 -0.0625,0.125 -0.0625,0.2187 0,0.0625 0.0078,0.1172 0.0312,0.1563 0.0313,0.0429 0.0625,0.0781 0.0938,0.1094 0.039,0.0234 0.0859,0.039 0.1406,0.0468 0.0508,0.0117 0.1094,0.0157 0.1719,0.0157 0.1246,0 0.2266,-0.0157 0.3126,-0.0469 0.094,-0.0313 0.164,-0.0703 0.219,-0.125 0.05,-0.0508 0.086,-0.1016 0.109,-0.1563 0.031,-0.0625 0.047,-0.1172 0.047,-0.1718 z m 0,0"
               id="path2746" />
          </g>
          <g
             id="use33027"
             transform="translate(67.739998,301.79999)">
            <path
               d="M 0.2969,-3.109 V 0 h 0.3593 v -0.2969 h 0.0157 c 0.039,0.0625 0.0859,0.1211 0.1406,0.1719 0.0625,0.043 0.125,0.0781 0.1875,0.1094 0.07,0.0195 0.141,0.0351 0.203,0.0468 0.07,0.0079 0.141,0.0157 0.203,0.0157 0.164,0 0.313,-0.0313 0.438,-0.0938 0.133,-0.0625 0.242,-0.1445 0.328,-0.25 C 2.254,-0.3984 2.316,-0.5195 2.359,-0.6562 2.398,-0.8008 2.422,-0.957 2.422,-1.125 2.422,-1.281 2.398,-1.426 2.359,-1.562 2.316,-1.707 2.254,-1.832 2.172,-1.937 2.086,-2.051 1.977,-2.141 1.844,-2.203 c -0.125,-0.07 -0.278,-0.11 -0.453,-0.11 -0.157,0 -0.305,0.032 -0.4379,0.094 -0.125,0.055 -0.2187,0.141 -0.2812,0.266 H 0.6562 v -1.156 z m 1.7341,1.968 c 0,0.106 -0.011,0.2113 -0.031,0.3129 -0.023,0.1054 -0.059,0.1992 -0.109,0.2812 -0.055,0.086 -0.125,0.1524 -0.219,0.2032 -0.086,0.0429 -0.188,0.0625 -0.313,0.0625 -0.125,0 -0.234,-0.0196 -0.328,-0.0625 C 0.9375,-0.3945 0.8633,-0.457 0.8125,-0.5312 0.7578,-0.6133 0.7187,-0.707 0.6875,-0.8125 0.6641,-0.9141 0.6562,-1.02 0.6562,-1.125 c 0,-0.102 0.0079,-0.207 0.0313,-0.312 0.0195,-0.102 0.0547,-0.192 0.1094,-0.266 0.0625,-0.082 0.1328,-0.149 0.2191,-0.203 0.093,-0.051 0.203,-0.078 0.328,-0.078 0.113,0 0.211,0.027 0.297,0.078 0.093,0.043 0.164,0.105 0.218,0.187 0.063,0.074 0.102,0.164 0.125,0.266 0.032,0.105 0.047,0.211 0.047,0.312 z m 0,0"
               id="path2690" />
          </g>
          <g
             id="use33029"
             transform="translate(70.330002,301.79999)">
            <path
               d="M 0.2969,-3.109 V 0 h 0.375 v -3.109 z m 0,0"
               id="path2698" />
          </g>
          <g
             id="use33031"
             transform="translate(71.300003,301.79999)">
            <path
               d="M 1.844,-1.344 H 0.5469 c 0.0078,-0.082 0.0312,-0.16 0.0625,-0.234 0.0312,-0.082 0.0703,-0.149 0.125,-0.203 0.0508,-0.063 0.1133,-0.11 0.1875,-0.141 0.0821,-0.039 0.1721,-0.062 0.2651,-0.062 0.094,0 0.176,0.023 0.25,0.062 0.083,0.031 0.149,0.078 0.204,0.141 0.062,0.054 0.109,0.121 0.14,0.203 0.031,0.074 0.051,0.152 0.063,0.234 z m 0.359,0.6253 H 1.828 C 1.797,-0.5703 1.727,-0.4609 1.625,-0.3906 1.531,-0.3164 1.406,-0.2812 1.25,-0.2812 1.125,-0.2812 1.016,-0.2969 0.9219,-0.3281 0.8359,-0.3672 0.7656,-0.4258 0.7031,-0.5 0.6484,-0.5703 0.6094,-0.6484 0.5781,-0.7344 0.5547,-0.8281 0.5469,-0.9219 0.5469,-1.016 H 2.234 c 0.008,-0.132 0,-0.273 -0.031,-0.421 C 2.172,-1.594 2.113,-1.734 2.031,-1.859 1.945,-1.992 1.836,-2.102 1.703,-2.188 1.578,-2.27 1.414,-2.313 1.219,-2.313 c -0.157,0 -0.3049,0.032 -0.4378,0.094 -0.125,0.063 -0.2343,0.149 -0.3281,0.25 -0.0937,0.106 -0.1679,0.231 -0.2187,0.375 -0.0547,0.137 -0.0782,0.289 -0.0782,0.453 0.0079,0.1801 0.0352,0.3402 0.0782,0.4848 0.039,0.1484 0.1093,0.2734 0.2031,0.375 0.0937,0.1054 0.2031,0.1875 0.3281,0.25 0.1328,0.0507 0.2894,0.0781 0.4684,0.0781 0.258,0 0.473,-0.0625 0.641,-0.1875 0.164,-0.125 0.273,-0.3164 0.328,-0.5781 z m 0,0"
               id="path2618" />
          </g>
        </g>
        <g
           id="g33053"
           transform="translate(-12.93,-8.452)">
          <g
             id="use33035"
             transform="translate(147.39999,374)">
            <path
               d="M 1.078,-1.594 0,0 H 0.4687 L 1.328,-1.281 2.156,0 H 2.672 L 1.578,-1.594 2.609,-3.109 H 2.141 L 1.328,-1.891 0.5469,-3.109 H 0.0625 Z m 0,0"
               id="path2734" />
          </g>
          <g
             id="use33037"
             transform="translate(151.2,374)">
            <path
               d="m 1.562,0 1.11,-3.109 H 2.234 l -0.89,2.6871 H 1.328 L 0.4375,-3.109 H 0 L 1.094,0 Z m 0,0"
               id="path2614" />
          </g>
          <g
             id="use33039"
             transform="translate(153.7,374)">
            <path
               d="M 2.281,-0.0156 C 2.219,0.0234 2.129,0.0469 2.016,0.0469 1.91,0.0469 1.832,0.0195 1.781,-0.0312 1.727,-0.082 1.703,-0.1719 1.703,-0.2969 1.598,-0.1719 1.477,-0.082 1.344,-0.0312 1.207,0.0195 1.062,0.0469 0.9063,0.0469 0.8008,0.0469 0.7031,0.0352 0.6094,0.0156 0.5156,-0.0039 0.4375,-0.0391 0.375,-0.0937 0.3125,-0.1445 0.2578,-0.207 0.2187,-0.2812 0.1758,-0.3633 0.1562,-0.4609 0.1562,-0.5781 c 0,-0.125 0.0196,-0.2266 0.0625,-0.3125 C 0.2578,-0.9727 0.3164,-1.039 0.3906,-1.094 0.4609,-1.145 0.5469,-1.18 0.6406,-1.203 0.7344,-1.234 0.8281,-1.254 0.9219,-1.266 1.023,-1.285 1.117,-1.301 1.203,-1.312 1.297,-1.32 1.379,-1.336 1.453,-1.359 1.523,-1.379 1.578,-1.406 1.609,-1.437 1.648,-1.477 1.672,-1.535 1.672,-1.609 1.672,-1.68 1.656,-1.742 1.625,-1.797 1.602,-1.848 1.566,-1.883 1.516,-1.906 1.461,-1.937 1.406,-1.957 1.344,-1.969 1.289,-1.977 1.234,-1.984 1.172,-1.984 c -0.156,0 -0.2892,0.031 -0.3908,0.093 -0.1054,0.063 -0.164,0.18 -0.1718,0.344 H 0.25 c 0,-0.144 0.0234,-0.265 0.0781,-0.359 C 0.3789,-2 0.4453,-2.078 0.5312,-2.141 0.625,-2.203 0.7227,-2.242 0.8281,-2.266 0.9414,-2.297 1.066,-2.313 1.203,-2.313 c 0.094,0 0.192,0.012 0.297,0.032 0.102,0.011 0.191,0.043 0.266,0.093 0.082,0.043 0.148,0.106 0.203,0.188 0.051,0.074 0.078,0.18 0.078,0.313 v 1.1558 c 0,0.0937 0.004,0.164 0.016,0.2031 0.007,0.0312 0.039,0.0469 0.093,0.0469 0.032,0 0.071,-0.004 0.125,-0.0157 z M 1.672,-1.156 C 1.629,-1.125 1.566,-1.098 1.484,-1.078 1.41,-1.066 1.332,-1.055 1.25,-1.047 1.164,-1.035 1.082,-1.023 1,-1.016 c -0.0859,0.012 -0.1641,0.0316 -0.2344,0.0629 -0.0625,0.0312 -0.1172,0.0742 -0.1562,0.125 -0.043,0.0547 -0.0625,0.125 -0.0625,0.2187 0,0.0625 0.0078,0.1172 0.0312,0.1563 0.0313,0.0429 0.0625,0.0781 0.0938,0.1094 0.039,0.0234 0.0859,0.039 0.1406,0.0468 0.0508,0.0117 0.1094,0.0157 0.1719,0.0157 0.1246,0 0.2266,-0.0157 0.3126,-0.0469 0.094,-0.0313 0.164,-0.0703 0.219,-0.125 0.05,-0.0508 0.086,-0.1016 0.109,-0.1563 0.031,-0.0625 0.047,-0.1172 0.047,-0.1718 z m 0,0"
               id="path2710" />
          </g>
          <g
             id="use33041"
             transform="translate(156,374)">
            <path
               d="M 0.2656,-2.25 V 0 h 0.375 v -1 c 0,-0.145 0.0078,-0.273 0.0313,-0.391 C 0.7031,-1.504 0.75,-1.598 0.8125,-1.672 0.8828,-1.754 0.9727,-1.812 1.078,-1.844 1.18,-1.883 1.305,-1.906 1.453,-1.906 v -0.407 c -0.199,0 -0.367,0.047 -0.4999,0.141 -0.125,0.086 -0.2344,0.215 -0.3281,0.391 H 0.6094 V -2.25 Z m 0,0"
               id="path2706" />
          </g>
          <g
             id="use33043"
             transform="translate(157.5,374)">
            <path
               d="m 0.6719,-2.656 v -0.453 h -0.375 v 0.453 z M 0.2969,-2.25 V 0 h 0.375 v -2.25 z m 0,0"
               id="path2702" />
          </g>
          <g
             id="use33045"
             transform="translate(158.39999,374)">
            <path
               d="M 2.281,-0.0156 C 2.219,0.0234 2.129,0.0469 2.016,0.0469 1.91,0.0469 1.832,0.0195 1.781,-0.0312 1.727,-0.082 1.703,-0.1719 1.703,-0.2969 1.598,-0.1719 1.477,-0.082 1.344,-0.0312 1.207,0.0195 1.062,0.0469 0.9063,0.0469 0.8008,0.0469 0.7031,0.0352 0.6094,0.0156 0.5156,-0.0039 0.4375,-0.0391 0.375,-0.0937 0.3125,-0.1445 0.2578,-0.207 0.2187,-0.2812 0.1758,-0.3633 0.1562,-0.4609 0.1562,-0.5781 c 0,-0.125 0.0196,-0.2266 0.0625,-0.3125 C 0.2578,-0.9727 0.3164,-1.039 0.3906,-1.094 0.4609,-1.145 0.5469,-1.18 0.6406,-1.203 0.7344,-1.234 0.8281,-1.254 0.9219,-1.266 1.023,-1.285 1.117,-1.301 1.203,-1.312 1.297,-1.32 1.379,-1.336 1.453,-1.359 1.523,-1.379 1.578,-1.406 1.609,-1.437 1.648,-1.477 1.672,-1.535 1.672,-1.609 1.672,-1.68 1.656,-1.742 1.625,-1.797 1.602,-1.848 1.566,-1.883 1.516,-1.906 1.461,-1.937 1.406,-1.957 1.344,-1.969 1.289,-1.977 1.234,-1.984 1.172,-1.984 c -0.156,0 -0.2892,0.031 -0.3908,0.093 -0.1054,0.063 -0.164,0.18 -0.1718,0.344 H 0.25 c 0,-0.144 0.0234,-0.265 0.0781,-0.359 C 0.3789,-2 0.4453,-2.078 0.5312,-2.141 0.625,-2.203 0.7227,-2.242 0.8281,-2.266 0.9414,-2.297 1.066,-2.313 1.203,-2.313 c 0.094,0 0.192,0.012 0.297,0.032 0.102,0.011 0.191,0.043 0.266,0.093 0.082,0.043 0.148,0.106 0.203,0.188 0.051,0.074 0.078,0.18 0.078,0.313 v 1.1558 c 0,0.0937 0.004,0.164 0.016,0.2031 0.007,0.0312 0.039,0.0469 0.093,0.0469 0.032,0 0.071,-0.004 0.125,-0.0157 z M 1.672,-1.156 C 1.629,-1.125 1.566,-1.098 1.484,-1.078 1.41,-1.066 1.332,-1.055 1.25,-1.047 1.164,-1.035 1.082,-1.023 1,-1.016 c -0.0859,0.012 -0.1641,0.0316 -0.2344,0.0629 -0.0625,0.0312 -0.1172,0.0742 -0.1562,0.125 -0.043,0.0547 -0.0625,0.125 -0.0625,0.2187 0,0.0625 0.0078,0.1172 0.0312,0.1563 0.0313,0.0429 0.0625,0.0781 0.0938,0.1094 0.039,0.0234 0.0859,0.039 0.1406,0.0468 0.0508,0.0117 0.1094,0.0157 0.1719,0.0157 0.1246,0 0.2266,-0.0157 0.3126,-0.0469 0.094,-0.0313 0.164,-0.0703 0.219,-0.125 0.05,-0.0508 0.086,-0.1016 0.109,-0.1563 0.031,-0.0625 0.047,-0.1172 0.047,-0.1718 z m 0,0"
               id="path2714" />
          </g>
          <g
             id="use33047"
             transform="translate(160.8,374)">
            <path
               d="M 0.2969,-3.109 V 0 h 0.3593 v -0.2969 h 0.0157 c 0.039,0.0625 0.0859,0.1211 0.1406,0.1719 0.0625,0.043 0.125,0.0781 0.1875,0.1094 0.07,0.0195 0.141,0.0351 0.203,0.0468 0.07,0.0079 0.141,0.0157 0.203,0.0157 0.164,0 0.313,-0.0313 0.438,-0.0938 0.133,-0.0625 0.242,-0.1445 0.328,-0.25 C 2.254,-0.3984 2.316,-0.5195 2.359,-0.6562 2.398,-0.8008 2.422,-0.957 2.422,-1.125 2.422,-1.281 2.398,-1.426 2.359,-1.562 2.316,-1.707 2.254,-1.832 2.172,-1.937 2.086,-2.051 1.977,-2.141 1.844,-2.203 c -0.125,-0.07 -0.278,-0.11 -0.453,-0.11 -0.157,0 -0.305,0.032 -0.4379,0.094 -0.125,0.055 -0.2187,0.141 -0.2812,0.266 H 0.6562 v -1.156 z m 1.7341,1.968 c 0,0.106 -0.011,0.2113 -0.031,0.3129 -0.023,0.1054 -0.059,0.1992 -0.109,0.2812 -0.055,0.086 -0.125,0.1524 -0.219,0.2032 -0.086,0.0429 -0.188,0.0625 -0.313,0.0625 -0.125,0 -0.234,-0.0196 -0.328,-0.0625 C 0.9375,-0.3945 0.8633,-0.457 0.8125,-0.5312 0.7578,-0.6133 0.7187,-0.707 0.6875,-0.8125 0.6641,-0.9141 0.6562,-1.02 0.6562,-1.125 c 0,-0.102 0.0079,-0.207 0.0313,-0.312 0.0195,-0.102 0.0547,-0.192 0.1094,-0.266 0.0625,-0.082 0.1328,-0.149 0.2191,-0.203 0.093,-0.051 0.203,-0.078 0.328,-0.078 0.113,0 0.211,0.027 0.297,0.078 0.093,0.043 0.164,0.105 0.218,0.187 0.063,0.074 0.102,0.164 0.125,0.266 0.032,0.105 0.047,0.211 0.047,0.312 z m 0,0"
               id="path2726" />
          </g>
          <g
             id="use33049"
             transform="translate(163.39999,374)">
            <path
               d="M 0.2969,-3.109 V 0 h 0.375 v -3.109 z m 0,0"
               id="path2722" />
          </g>
          <g
             id="use33051"
             transform="translate(164.3,374)">
            <path
               d="M 1.844,-1.344 H 0.5469 c 0.0078,-0.082 0.0312,-0.16 0.0625,-0.234 0.0312,-0.082 0.0703,-0.149 0.125,-0.203 0.0508,-0.063 0.1133,-0.11 0.1875,-0.141 0.0821,-0.039 0.1721,-0.062 0.2651,-0.062 0.094,0 0.176,0.023 0.25,0.062 0.083,0.031 0.149,0.078 0.204,0.141 0.062,0.054 0.109,0.121 0.14,0.203 0.031,0.074 0.051,0.152 0.063,0.234 z m 0.359,0.6253 H 1.828 C 1.797,-0.5703 1.727,-0.4609 1.625,-0.3906 1.531,-0.3164 1.406,-0.2812 1.25,-0.2812 1.125,-0.2812 1.016,-0.2969 0.9219,-0.3281 0.8359,-0.3672 0.7656,-0.4258 0.7031,-0.5 0.6484,-0.5703 0.6094,-0.6484 0.5781,-0.7344 0.5547,-0.8281 0.5469,-0.9219 0.5469,-1.016 H 2.234 c 0.008,-0.132 0,-0.273 -0.031,-0.421 C 2.172,-1.594 2.113,-1.734 2.031,-1.859 1.945,-1.992 1.836,-2.102 1.703,-2.188 1.578,-2.27 1.414,-2.313 1.219,-2.313 c -0.157,0 -0.3049,0.032 -0.4378,0.094 -0.125,0.063 -0.2343,0.149 -0.3281,0.25 -0.0937,0.106 -0.1679,0.231 -0.2187,0.375 -0.0547,0.137 -0.0782,0.289 -0.0782,0.453 0.0079,0.1801 0.0352,0.3402 0.0782,0.4848 0.039,0.1484 0.1093,0.2734 0.2031,0.375 0.0937,0.1054 0.2031,0.1875 0.3281,0.25 0.1328,0.0507 0.2894,0.0781 0.4684,0.0781 0.258,0 0.473,-0.0625 0.641,-0.1875 0.164,-0.125 0.273,-0.3164 0.328,-0.5781 z m 0,0"
               id="path2718" />
          </g>
        </g>
        <g
           id="g33087"
           transform="translate(0,-0.9518)">
          <g
             id="use33055"
             transform="translate(67.690002,241.60001)">
            <path
               d="M 3.141,-8.297 V 0 h 1.25 V -8.297 H 7.5 V -9.344 H 0.0312 v 1.047 z m 0,0"
               id="path2674" />
          </g>
          <g
             id="use33057"
             transform="translate(75.209999,241.60001)">
            <path
               d="m 2.016,-7.984 v -1.36 H 0.9063 v 1.36 z M 0.9063,-6.766 V 0 H 2.016 v -6.766 z m 0,0"
               id="path2666" />
          </g>
          <g
             id="use33059"
             transform="translate(78.110001,241.60001)">
            <path
               d="M 2.391,-6.766 V -8.797 H 1.266 v 2.031 H 0.125 v 0.985 h 1.141 v 4.297 c 0,0.312 0.031,0.5699 0.093,0.7653 0.063,0.1875 0.157,0.3359 0.282,0.4375 0.125,0.1054 0.289,0.1796 0.5,0.2187 C 2.348,-0.0195 2.594,0 2.875,0 H 3.734 V -0.9844 H 3.219 C 3.039,-0.9844 2.895,-0.9883 2.781,-1 2.676,-1.008 2.594,-1.035 2.531,-1.078 2.477,-1.129 2.441,-1.191 2.422,-1.266 2.398,-1.348 2.391,-1.453 2.391,-1.578 v -4.203 h 1.343 v -0.985 z m 0,0"
               id="path2650" />
          </g>
          <g
             id="use33061"
             transform="translate(82.239998,241.60001)">
            <path
               d="M 0.9063,-9.344 V 0 H 2.016 v -9.344 z m 0,0"
               id="path2646" />
          </g>
          <g
             id="use33063"
             transform="translate(85.139999,241.60001)">
            <path
               d="M 5.531,-4.031 H 1.656 c 0.008,-0.258 0.063,-0.504 0.156,-0.735 0.102,-0.238 0.239,-0.441 0.407,-0.609 0.164,-0.176 0.363,-0.312 0.594,-0.406 0.226,-0.102 0.488,-0.156 0.781,-0.156 0.269,0 0.519,0.054 0.75,0.156 0.238,0.094 0.441,0.23 0.609,0.406 0.176,0.168 0.313,0.371 0.406,0.609 0.102,0.231 0.161,0.477 0.172,0.735 z m 1.078,1.89 H 5.516 C 5.422,-1.703 5.223,-1.375 4.922,-1.156 4.617,-0.9375 4.234,-0.8281 3.766,-0.8281 3.391,-0.8281 3.066,-0.8828 2.797,-1 2.523,-1.125 2.301,-1.289 2.125,-1.5 1.957,-1.707 1.832,-1.941 1.75,-2.203 1.676,-2.473 1.645,-2.754 1.656,-3.047 H 6.719 C 6.738,-3.461 6.703,-3.895 6.609,-4.344 6.516,-4.801 6.348,-5.223 6.109,-5.609 5.867,-5.992 5.551,-6.305 5.156,-6.547 c -0.398,-0.25 -0.898,-0.375 -1.5,-0.375 -0.468,0 -0.898,0.09 -1.281,0.266 -0.387,0.168 -0.727,0.414 -1.016,0.734 -0.281,0.313 -0.4996,0.684 -0.6559,1.11 -0.1562,0.429 -0.2344,0.898 -0.2344,1.406 0.0196,0.523 0.0977,1 0.2344,1.437 0.1328,0.43 0.3359,0.805 0.6089,1.1252 0.27,0.3126 0.602,0.5586 1.001,0.7344 0.394,0.1641 0.863,0.25 1.406,0.25 0.769,0 1.406,-0.1914 1.906,-0.5781 0.508,-0.3828 0.836,-0.9535 0.984,-1.7035 z m 0,0"
               id="path2638" />
          </g>
          <g
             id="use33065"
             transform="translate(95.809998,241.60001)">
            <path
               d="M 7.547,0 9.703,-6.766 H 8.547 L 7.031,-1.234 H 7 L 5.594,-6.766 H 4.375 L 3.016,-1.234 H 2.984 L 1.453,-6.766 H 0.2187 L 2.391,0 H 3.594 L 4.969,-5.375 H 4.984 L 6.359,0 Z m 0,0"
               id="path2634" />
          </g>
          <g
             id="use33067"
             transform="translate(105.7,241.60001)">
            <path
               d="m 2.016,-7.984 v -1.36 H 0.9063 v 1.36 z M 0.9063,-6.766 V 0 H 2.016 v -6.766 z m 0,0"
               id="path2670" />
          </g>
          <g
             id="use33069"
             transform="translate(108.6,241.60001)">
            <path
               d="M 2.391,-6.766 V -8.797 H 1.266 v 2.031 H 0.125 v 0.985 h 1.141 v 4.297 c 0,0.312 0.031,0.5699 0.093,0.7653 0.063,0.1875 0.157,0.3359 0.282,0.4375 0.125,0.1054 0.289,0.1796 0.5,0.2187 C 2.348,-0.0195 2.594,0 2.875,0 H 3.734 V -0.9844 H 3.219 C 3.039,-0.9844 2.895,-0.9883 2.781,-1 2.676,-1.008 2.594,-1.035 2.531,-1.078 2.477,-1.129 2.441,-1.191 2.422,-1.266 2.398,-1.348 2.391,-1.453 2.391,-1.578 v -4.203 h 1.343 v -0.985 z m 0,0"
               id="path2654" />
          </g>
          <g
             id="use33071"
             transform="translate(112.8,241.60001)">
            <path
               d="M 0.8438,-9.344 V 0 H 1.953 v -3.828 c 0,-0.301 0.039,-0.578 0.125,-0.828 0.082,-0.258 0.207,-0.485 0.375,-0.672 0.164,-0.195 0.367,-0.348 0.61,-0.453 0.25,-0.102 0.546,-0.156 0.89,-0.156 0.426,0 0.758,0.121 1,0.359 0.25,0.242 0.375,0.574 0.375,1 V 0 h 1.109 v -4.453 c 0,-0.363 -0.039,-0.695 -0.109,-1 C 6.254,-5.754 6.125,-6.016 5.937,-6.234 5.758,-6.453 5.52,-6.617 5.219,-6.734 4.926,-6.859 4.555,-6.922 4.109,-6.922 3.91,-6.922 3.703,-6.898 3.484,-6.859 3.273,-6.816 3.07,-6.75 2.875,-6.656 2.676,-6.562 2.5,-6.441 2.344,-6.297 2.188,-6.16 2.066,-5.988 1.984,-5.781 H 1.953 v -3.563 z m 0,0"
               id="path2630" />
          </g>
          <g
             id="use33073"
             transform="translate(123.7,241.60001)">
            <path
               d="M 5.437,-4.594 H 6.594 C 6.539,-5 6.43,-5.348 6.266,-5.641 6.098,-5.93 5.883,-6.172 5.625,-6.359 5.375,-6.555 5.082,-6.695 4.75,-6.781 4.414,-6.875 4.055,-6.922 3.672,-6.922 c -0.531,0 -1,0.094 -1.406,0.281 -0.407,0.188 -0.746,0.45 -1.016,0.782 -0.2617,0.324 -0.4609,0.703 -0.5938,1.14 -0.125,0.438 -0.1875,0.914 -0.1875,1.422 0,0.5 0.0665,0.965 0.2032,1.391 0.1328,0.429 0.3321,0.793 0.5941,1.0935 0.269,0.3047 0.601,0.5391 1,0.7031 0.406,0.1641 0.863,0.25 1.375,0.25 0.863,0 1.546,-0.2226 2.046,-0.6718 C 6.187,-0.9883 6.5,-1.633 6.625,-2.469 H 5.484 C 5.41,-1.945 5.219,-1.539 4.906,-1.25 4.602,-0.9688 4.176,-0.8281 3.625,-0.8281 3.281,-0.8281 2.977,-0.8945 2.719,-1.031 2.469,-1.176 2.266,-1.363 2.109,-1.594 1.953,-1.82 1.836,-2.082 1.766,-2.375 1.691,-2.676 1.656,-2.984 1.656,-3.297 c 0,-0.344 0.031,-0.672 0.094,-0.984 0.07,-0.321 0.187,-0.602 0.344,-0.844 0.164,-0.25 0.383,-0.445 0.656,-0.594 0.27,-0.144 0.609,-0.218 1.016,-0.218 0.468,0 0.836,0.121 1.109,0.359 0.281,0.23 0.469,0.558 0.562,0.984 z m 0,0"
               id="path2626" />
          </g>
          <g
             id="use33075"
             transform="translate(130.7,241.60001)">
            <path
               d="m 1.656,-3.375 c 0,-0.414 0.051,-0.781 0.156,-1.094 0.114,-0.32 0.266,-0.593 0.454,-0.812 0.187,-0.219 0.41,-0.379 0.672,-0.485 0.257,-0.113 0.535,-0.171 0.828,-0.171 0.281,0 0.55,0.058 0.812,0.171 0.258,0.106 0.484,0.266 0.672,0.485 0.187,0.219 0.332,0.492 0.437,0.812 0.114,0.313 0.172,0.68 0.172,1.094 0,0.406 -0.058,0.773 -0.172,1.094 C 5.582,-1.969 5.437,-1.703 5.25,-1.484 5.062,-1.273 4.836,-1.113 4.578,-1 4.316,-0.8828 4.047,-0.8281 3.766,-0.8281 3.473,-0.8281 3.195,-0.8828 2.938,-1 2.676,-1.113 2.453,-1.273 2.266,-1.484 2.078,-1.703 1.926,-1.969 1.812,-2.281 1.707,-2.602 1.656,-2.969 1.656,-3.375 Z m -1.1873,0 c 0,0.5 0.0665,0.965 0.2032,1.391 0.1445,0.429 0.3591,0.804 0.6401,1.1246 0.282,0.3125 0.625,0.5586 1.032,0.7344 0.406,0.1758 0.879,0.2656 1.422,0.2656 0.531,0 1,-0.0898 1.406,-0.2656 0.406,-0.1758 0.75,-0.4219 1.031,-0.7344 C 6.484,-1.18 6.691,-1.555 6.828,-1.984 6.973,-2.41 7.047,-2.875 7.047,-3.375 7.047,-3.875 6.973,-4.336 6.828,-4.766 6.691,-5.203 6.484,-5.578 6.203,-5.891 5.922,-6.211 5.578,-6.461 5.172,-6.641 4.766,-6.828 4.297,-6.922 3.766,-6.922 c -0.543,0 -1.016,0.094 -1.422,0.281 -0.407,0.18 -0.75,0.43 -1.032,0.75 -0.281,0.313 -0.4956,0.688 -0.6401,1.125 -0.1367,0.43 -0.2032,0.891 -0.2032,1.391 z m 0,0"
               id="path2622" />
          </g>
          <g
             id="use33077"
             transform="translate(138.2,241.60001)">
            <path
               d="M 0.8438,-6.766 V 0 H 1.953 v -3.828 c 0,-0.301 0.039,-0.578 0.125,-0.828 0.082,-0.258 0.207,-0.485 0.375,-0.672 0.164,-0.195 0.367,-0.348 0.61,-0.453 0.25,-0.102 0.546,-0.156 0.89,-0.156 0.426,0 0.758,0.121 1,0.359 0.25,0.242 0.375,0.574 0.375,1 V 0 h 1.109 v -4.453 c 0,-0.363 -0.039,-0.695 -0.109,-1 C 6.254,-5.754 6.125,-6.016 5.937,-6.234 5.758,-6.453 5.52,-6.617 5.219,-6.734 4.926,-6.859 4.555,-6.922 4.109,-6.922 c -1,0 -1.734,0.406 -2.203,1.219 H 1.891 v -1.063 z m 0,0"
               id="path2682" />
          </g>
          <g
             id="use33079"
             transform="translate(145.5,241.60001)">
            <path
               d="M 2.391,-6.766 V -8.797 H 1.266 v 2.031 H 0.125 v 0.985 h 1.141 v 4.297 c 0,0.312 0.031,0.5699 0.093,0.7653 0.063,0.1875 0.157,0.3359 0.282,0.4375 0.125,0.1054 0.289,0.1796 0.5,0.2187 C 2.348,-0.0195 2.594,0 2.875,0 H 3.734 V -0.9844 H 3.219 C 3.039,-0.9844 2.895,-0.9883 2.781,-1 2.676,-1.008 2.594,-1.035 2.531,-1.078 2.477,-1.129 2.441,-1.191 2.422,-1.266 2.398,-1.348 2.391,-1.453 2.391,-1.578 v -4.203 h 1.343 v -0.985 z m 0,0"
               id="path2658" />
          </g>
          <g
             id="use33081"
             transform="translate(149.60001,241.60001)">
            <path
               d="M 5.531,-4.031 H 1.656 c 0.008,-0.258 0.063,-0.504 0.156,-0.735 0.102,-0.238 0.239,-0.441 0.407,-0.609 0.164,-0.176 0.363,-0.312 0.594,-0.406 0.226,-0.102 0.488,-0.156 0.781,-0.156 0.269,0 0.519,0.054 0.75,0.156 0.238,0.094 0.441,0.23 0.609,0.406 0.176,0.168 0.313,0.371 0.406,0.609 0.102,0.231 0.161,0.477 0.172,0.735 z m 1.078,1.89 H 5.516 C 5.422,-1.703 5.223,-1.375 4.922,-1.156 4.617,-0.9375 4.234,-0.8281 3.766,-0.8281 3.391,-0.8281 3.066,-0.8828 2.797,-1 2.523,-1.125 2.301,-1.289 2.125,-1.5 1.957,-1.707 1.832,-1.941 1.75,-2.203 1.676,-2.473 1.645,-2.754 1.656,-3.047 H 6.719 C 6.738,-3.461 6.703,-3.895 6.609,-4.344 6.516,-4.801 6.348,-5.223 6.109,-5.609 5.867,-5.992 5.551,-6.305 5.156,-6.547 c -0.398,-0.25 -0.898,-0.375 -1.5,-0.375 -0.468,0 -0.898,0.09 -1.281,0.266 -0.387,0.168 -0.727,0.414 -1.016,0.734 -0.281,0.313 -0.4996,0.684 -0.6559,1.11 -0.1562,0.429 -0.2344,0.898 -0.2344,1.406 0.0196,0.523 0.0977,1 0.2344,1.437 0.1328,0.43 0.3359,0.805 0.6089,1.1252 0.27,0.3126 0.602,0.5586 1.001,0.7344 0.394,0.1641 0.863,0.25 1.406,0.25 0.769,0 1.406,-0.1914 1.906,-0.5781 0.508,-0.3828 0.836,-0.9535 0.984,-1.7035 z m 0,0"
               id="path2642" />
          </g>
          <g
             id="use33083"
             transform="translate(156.7,241.60001)">
            <path
               d="M 2.656,-3.563 0.125,0 H 1.469 L 3.359,-2.797 5.234,0 H 6.672 L 4.047,-3.656 6.375,-6.766 H 5.047 l -1.688,2.36 -1.625,-2.36 H 0.2969 Z m 0,0"
               id="path2678" />
          </g>
          <g
             id="use33085"
             transform="translate(163.39999,241.60001)">
            <path
               d="M 2.391,-6.766 V -8.797 H 1.266 v 2.031 H 0.125 v 0.985 h 1.141 v 4.297 c 0,0.312 0.031,0.5699 0.093,0.7653 0.063,0.1875 0.157,0.3359 0.282,0.4375 0.125,0.1054 0.289,0.1796 0.5,0.2187 C 2.348,-0.0195 2.594,0 2.875,0 H 3.734 V -0.9844 H 3.219 C 3.039,-0.9844 2.895,-0.9883 2.781,-1 2.676,-1.008 2.594,-1.035 2.531,-1.078 2.477,-1.129 2.441,-1.191 2.422,-1.266 2.398,-1.348 2.391,-1.453 2.391,-1.578 v -4.203 h 1.343 v -0.985 z m 0,0"
               id="path2662" />
          </g>
        </g>
      </g>
    </g>
  </g>
</svg>
