<?xml version="1.0" encoding="UTF-8" standalone="no"?>
<!-- Created with Inkscape (http://www.inkscape.org/) -->

<svg
   width="53.978436mm"
   height="51.53722mm"
   viewBox="0 0 53.978436 51.53722"
   version="1.1"
   id="svg3488"
   inkscape:version="1.1.2 (0a00cf5339, 2022-02-04)"
   sodipodi:docname="03-integration-knowledge.svg"
   xmlns:inkscape="http://www.inkscape.org/namespaces/inkscape"
   xmlns:sodipodi="http://sodipodi.sourceforge.net/DTD/sodipodi-0.dtd"
   xmlns="http://www.w3.org/2000/svg"
   xmlns:svg="http://www.w3.org/2000/svg">
  <sodipodi:namedview
     id="namedview3490"
     pagecolor="#ffffff"
     bordercolor="#666666"
     borderopacity="1.0"
     inkscape:pageshadow="2"
     inkscape:pageopacity="0.0"
     inkscape:pagecheckerboard="0"
     inkscape:document-units="mm"
     showgrid="false"
     fit-margin-top="0"
     fit-margin-left="0"
     fit-margin-right="0"
     fit-margin-bottom="0"
     inkscape:zoom="0.57370932"
     inkscape:cx="52.29129"
     inkscape:cy="594.37766"
     inkscape:window-width="3840"
     inkscape:window-height="2111"
     inkscape:window-x="3839"
     inkscape:window-y="0"
     inkscape:window-maximized="1"
     inkscape:current-layer="layer1" />
  <defs
     id="defs3485" />
  <g
     inkscape:label="Layer 1"
     inkscape:groupmode="layer"
     id="layer1"
     transform="translate(59.733005,8.704946)">
    <g
       id="g15071"
       transform="matrix(0.35277777,0,0,0.35277777,-183.02178,-8.704946)">
      <g
         id="g14949">
        <g
           id="g14868">
          <path
             style="fill:none;stroke:#000000;stroke-width:0.779528;stroke-linecap:round;stroke-linejoin:round;stroke-miterlimit:10"
             d="m 370.6,14.7 v 131"
             id="path35028" />
        </g>
        <path
           style="fill:none;stroke:#000000;stroke-width:0.779489;stroke-linecap:round;stroke-linejoin:round;stroke-miterlimit:10"
           d="M 355.6,129.7 H 502.1"
           id="path35030" />
        <g
           id="g35126"
           transform="translate(284.8,-231)"
           style="opacity:0.5">
          <path
             style="fill:none;stroke:#000000;stroke-width:1.29921;stroke-linecap:round;stroke-linejoin:round;stroke-miterlimit:10"
             d="m 105.5,344.8 v 0"
             id="path35034"
             sodipodi:nodetypes="cc" />
          <path
             style="fill:none;stroke:#000000;stroke-width:1.29921;stroke-linecap:round;stroke-linejoin:round;stroke-miterlimit:10"
             d="m 118,333.8 v 0"
             id="path35036"
             sodipodi:nodetypes="cc" />
          <path
             style="fill:none;stroke:#000000;stroke-width:1.29914;stroke-linecap:round;stroke-linejoin:round;stroke-miterlimit:10"
             d="m 127.2,326.1 v 0"
             id="path35038"
             sodipodi:nodetypes="cc" />
          <path
             style="fill:none;stroke:#000000;stroke-width:1.29921;stroke-linecap:round;stroke-linejoin:round;stroke-miterlimit:10"
             d="m 141.1,315.8 v 0"
             id="path35040"
             sodipodi:nodetypes="cc" />
          <path
             style="fill:none;stroke:#000000;stroke-width:1.29921;stroke-linecap:round;stroke-linejoin:round;stroke-miterlimit:10"
             d="m 121.5,315.5 v 0"
             id="path35042"
             sodipodi:nodetypes="cc" />
          <path
             style="fill:none;stroke:#000000;stroke-width:1.29921;stroke-linecap:round;stroke-linejoin:round;stroke-miterlimit:10"
             d="m 129.8,332.9 v 0"
             id="path35044"
             sodipodi:nodetypes="cc" />
          <path
             style="fill:none;stroke:#000000;stroke-width:1.29921;stroke-linecap:round;stroke-linejoin:round;stroke-miterlimit:10"
             d="m 106.3,333.4 v 0"
             id="path35046"
             sodipodi:nodetypes="cc" />
          <path
             style="fill:none;stroke:#000000;stroke-width:1.29921;stroke-linecap:round;stroke-linejoin:round;stroke-miterlimit:10"
             d="m 118,344 v 0"
             id="path35048"
             sodipodi:nodetypes="cc" />
          <path
             style="fill:none;stroke:#000000;stroke-width:1.29921;stroke-linecap:round;stroke-linejoin:round;stroke-miterlimit:10"
             d="m 152.2,321.3 v 0"
             id="path35050"
             sodipodi:nodetypes="cc" />
          <path
             style="fill:none;stroke:#000000;stroke-width:1.29921;stroke-linecap:round;stroke-linejoin:round;stroke-miterlimit:10"
             d="m 141.7,305.8 v 0"
             id="path35052"
             sodipodi:nodetypes="cc" />
          <path
             style="fill:none;stroke:#000000;stroke-width:1.29921;stroke-linecap:round;stroke-linejoin:round;stroke-miterlimit:10"
             d="m 131.4,314.1 v 0"
             id="path35054"
             sodipodi:nodetypes="cc" />
          <path
             style="fill:none;stroke:#000000;stroke-width:1.29921;stroke-linecap:round;stroke-linejoin:round;stroke-miterlimit:10"
             d="m 140,325.2 v 0"
             id="path35056"
             sodipodi:nodetypes="cc" />
          <path
             style="fill:none;stroke:#000000;stroke-width:1.29921;stroke-linecap:round;stroke-linejoin:round;stroke-miterlimit:10"
             d="m 156,297.3 v 0"
             id="path35058"
             sodipodi:nodetypes="cc" />
          <path
             style="fill:none;stroke:#000000;stroke-width:1.29921;stroke-linecap:round;stroke-linejoin:round;stroke-miterlimit:10"
             d="m 140.3,294 v 0"
             id="path35060"
             sodipodi:nodetypes="cc" />
          <path
             style="fill:none;stroke:#000000;stroke-width:1.29921;stroke-linecap:round;stroke-linejoin:round;stroke-miterlimit:10"
             d="m 157,281.3 v 0"
             id="path35062"
             sodipodi:nodetypes="cc" />
          <path
             style="fill:none;stroke:#000000;stroke-width:1.29921;stroke-linecap:round;stroke-linejoin:round;stroke-miterlimit:10"
             d="m 163.6,301.3 v 0"
             id="path35064"
             sodipodi:nodetypes="cc" />
          <path
             style="fill:none;stroke:#000000;stroke-width:1.29921;stroke-linecap:round;stroke-linejoin:round;stroke-miterlimit:10"
             d="m 155,312.2 v 0"
             id="path35066"
             sodipodi:nodetypes="cc" />
          <path
             style="fill:none;stroke:#000000;stroke-width:1.29921;stroke-linecap:round;stroke-linejoin:round;stroke-miterlimit:10"
             d="m 170.1,311.7 v 0"
             id="path35068"
             sodipodi:nodetypes="cc" />
          <path
             style="fill:none;stroke:#000000;stroke-width:1.29921;stroke-linecap:round;stroke-linejoin:round;stroke-miterlimit:10"
             d="m 181.3,301.3 v 0"
             id="path35070"
             sodipodi:nodetypes="cc" />
          <path
             style="fill:none;stroke:#000000;stroke-width:1.29921;stroke-linecap:round;stroke-linejoin:round;stroke-miterlimit:10"
             d="m 200.5,291.8 v 0"
             id="path35072"
             sodipodi:nodetypes="cc" />
          <path
             style="fill:none;stroke:#000000;stroke-width:1.29921;stroke-linecap:round;stroke-linejoin:round;stroke-miterlimit:10"
             d="m 212.7,286.6 v 0"
             id="path35074"
             sodipodi:nodetypes="cc" />
          <path
             style="fill:none;stroke:#000000;stroke-width:1.29921;stroke-linecap:round;stroke-linejoin:round;stroke-miterlimit:10"
             d="m 185.7,284.3 v 0"
             id="path35076"
             sodipodi:nodetypes="cc" />
          <path
             style="fill:none;stroke:#000000;stroke-width:1.29921;stroke-linecap:round;stroke-linejoin:round;stroke-miterlimit:10"
             d="m 204.3,268.7 v 0"
             id="path35078"
             sodipodi:nodetypes="cc" />
          <path
             style="fill:none;stroke:#000000;stroke-width:1.29921;stroke-linecap:round;stroke-linejoin:round;stroke-miterlimit:10"
             d="m 201,281.3 v 0"
             id="path35080"
             sodipodi:nodetypes="cc" />
          <path
             style="fill:none;stroke:#000000;stroke-width:1.29921;stroke-linecap:round;stroke-linejoin:round;stroke-miterlimit:10"
             d="m 211.9,249.9 v 0"
             id="path35082"
             sodipodi:nodetypes="cc" />
          <path
             style="fill:none;stroke:#000000;stroke-width:1.29921;stroke-linecap:round;stroke-linejoin:round;stroke-miterlimit:10"
             d="m 195.4,253.8 v 0"
             id="path35084"
             sodipodi:nodetypes="cc" />
          <path
             style="fill:none;stroke:#000000;stroke-width:1.29921;stroke-linecap:round;stroke-linejoin:round;stroke-miterlimit:10"
             d="m 203.8,244.3 v 0"
             id="path35086"
             sodipodi:nodetypes="cc" />
          <path
             style="fill:none;stroke:#000000;stroke-width:1.29921;stroke-linecap:round;stroke-linejoin:round;stroke-miterlimit:10"
             d="m 180.2,253.8 v 0"
             id="path35088"
             sodipodi:nodetypes="cc" />
          <path
             style="fill:none;stroke:#000000;stroke-width:1.29921;stroke-linecap:round;stroke-linejoin:round;stroke-miterlimit:10"
             d="m 165.6,268.1 v 0"
             id="path35090"
             sodipodi:nodetypes="cc" />
          <path
             style="fill:none;stroke:#000000;stroke-width:1.29921;stroke-linecap:round;stroke-linejoin:round;stroke-miterlimit:10"
             d="m 167.1,277.5 v 0"
             id="path35092"
             sodipodi:nodetypes="cc" />
          <path
             style="fill:none;stroke:#000000;stroke-width:1.29921;stroke-linecap:round;stroke-linejoin:round;stroke-miterlimit:10"
             d="m 184.8,269.5 v 0"
             id="path35094"
             sodipodi:nodetypes="cc" />
          <path
             style="fill:none;stroke:#000000;stroke-width:1.29921;stroke-linecap:round;stroke-linejoin:round;stroke-miterlimit:10"
             d="m 172.1,289 v 0"
             id="path35096"
             sodipodi:nodetypes="cc" />
          <path
             style="fill:none;stroke:#000000;stroke-width:1.29921;stroke-linecap:round;stroke-linejoin:round;stroke-miterlimit:10"
             d="m 164.4,296.8 v 0"
             id="path35098"
             sodipodi:nodetypes="cc" />
          <path
             style="fill:none;stroke:#000000;stroke-width:1.29921;stroke-linecap:round;stroke-linejoin:round;stroke-miterlimit:10"
             d="m 194.8,340.5 v 0"
             id="path35100"
             sodipodi:nodetypes="cc" />
          <path
             style="fill:none;stroke:#000000;stroke-width:1.29921;stroke-linecap:round;stroke-linejoin:round;stroke-miterlimit:10"
             d="m 199.1,338.6 v 0"
             id="path35102"
             sodipodi:nodetypes="cc" />
          <path
             style="fill:none;stroke:#000000;stroke-width:1.29921;stroke-linecap:round;stroke-linejoin:round;stroke-miterlimit:10"
             d="m 199.1,343.2 v 0"
             id="path35104"
             sodipodi:nodetypes="cc" />
          <path
             style="fill:none;stroke:#000000;stroke-width:1.29921;stroke-linecap:round;stroke-linejoin:round;stroke-miterlimit:10"
             d="m 174.7,250.7 v 0"
             id="path35106"
             sodipodi:nodetypes="cc" />
          <path
             style="fill:none;stroke:#000000;stroke-width:1.29921;stroke-linecap:round;stroke-linejoin:round;stroke-miterlimit:10"
             d="m 163.8,323.8 v 0"
             id="path35108"
             sodipodi:nodetypes="cc" />
          <path
             style="fill:none;stroke:#000000;stroke-width:1.29921;stroke-linecap:round;stroke-linejoin:round;stroke-miterlimit:10"
             d="m 179,317.3 v 0"
             id="path35110"
             sodipodi:nodetypes="cc" />
          <path
             style="fill:none;stroke:#000000;stroke-width:1.29921;stroke-linecap:round;stroke-linejoin:round;stroke-miterlimit:10"
             d="m 199.7,306.3 v 0"
             id="path35112"
             sodipodi:nodetypes="cc" />
          <path
             style="fill:none;stroke:#000000;stroke-width:1.29921;stroke-linecap:round;stroke-linejoin:round;stroke-miterlimit:10"
             d="m 211.9,298.8 v 0"
             id="path35114"
             sodipodi:nodetypes="cc" />
          <path
             style="fill:none;stroke:#000000;stroke-width:1.29921;stroke-linecap:round;stroke-linejoin:round;stroke-miterlimit:10"
             d="m 144.4,335.7 v 0"
             id="path35116"
             sodipodi:nodetypes="cc" />
          <path
             style="fill:none;stroke:#000000;stroke-width:1.29914;stroke-linecap:round;stroke-linejoin:round;stroke-miterlimit:10"
             d="m 112.7,325.1 v 0"
             id="path35118"
             sodipodi:nodetypes="cc" />
          <path
             style="fill:none;stroke:#000000;stroke-width:1.29921;stroke-linecap:round;stroke-linejoin:round;stroke-miterlimit:10"
             d="m 95.91,350.6 v 0"
             id="path35120"
             sodipodi:nodetypes="cc" />
          <path
             style="fill:none;stroke:#000000;stroke-width:1.29921;stroke-linecap:round;stroke-linejoin:round;stroke-miterlimit:10"
             d="m 94.55,343.7 v 0"
             id="path35122"
             sodipodi:nodetypes="cc" />
          <path
             style="fill:none;stroke:#000000;stroke-width:1.29921;stroke-linecap:round;stroke-linejoin:round;stroke-miterlimit:10"
             d="m 101.1,355.3 v 0"
             id="path35124"
             sodipodi:nodetypes="cc" />
        </g>
      </g>
      <g
         id="g46445"
         style="stroke-width:1.1;stroke-miterlimit:10"
         transform="translate(-57.22,-230)">
        <path
           style="fill:none;stroke:#000000;stroke-linecap:round;stroke-linejoin:round"
           d="m 429.6,306.8 v 6 l 4.8,-4.8 -4.8,-1.2"
           id="path3458" />
        <g
           id="g46348">
          <g
             id="g41385"
             transform="translate(2.964,13.13)">
            <path
               style="fill:none;stroke:#000000;stroke-linecap:round;stroke-linejoin:round"
               d="m 464.8,285.4 c -3.5,28 -2,38 19.1,56.4"
               id="path3406"
               sodipodi:nodetypes="cc" />
            <path
               style="fill:none;stroke:#000000;stroke-linecap:round;stroke-linejoin:round"
               d="m 481.5,342.2 3.7,-2.7 v 3.9 l -3.7,-1.2"
               id="path3414" />
          </g>
          <g
             id="g38356">
            <path
               style="fill:none;stroke:#000000;stroke-linecap:round;stroke-linejoin:round"
               d="m 500.5,258 c 6.8,-1.7 9.7,-6 8.7,-13"
               id="path3430" />
            <path
               style="fill:none;stroke:#000000;stroke-linecap:round;stroke-linejoin:round"
               d="m 509.3,242.5 -2.9,4.1 5.5,-1.2 -2.6,-2.9"
               id="path3438" />
          </g>
          <path
             style="fill:none;stroke:#000000;stroke-linecap:round;stroke-linejoin:round"
             d="m 431.6,310 42.9,46.7"
             id="path3442" />
          <path
             style="fill:none;stroke:#000000;stroke-linecap:round;stroke-linejoin:round"
             d="m 472.4,358.5 4.5,0.5 -0.7,-4.7 -3.8,4.2"
             id="path3450"
             sodipodi:nodetypes="cccc" />
          <g
             id="g38293"
             transform="translate(-2.159,-3.497)">
            <path
               style="fill:none;stroke:#000000;stroke-linecap:round;stroke-linejoin:round"
               d="m 424,292.9 c 0.4,-18.5 7.4,-33.6 21,-45.4"
               id="path3462" />
            <path
               style="fill:none;stroke:#000000;stroke-linecap:round;stroke-linejoin:round"
               d="m 442.4,245.9 4,5.6 2.7,-5.6 h -6.7"
               id="path3470" />
            <path
               style="fill:none;stroke:#000000;stroke-linecap:round;stroke-linejoin:round"
               d="m 421.4,289.2 1.9,6.4 3.8,-4.4 -5.7,-2"
               id="path3478"
               sodipodi:nodetypes="cccc" />
          </g>
          <g
             id="g41494">
            <g
               id="g38840">
              <path
                 style="fill:none;stroke:#000000;stroke-linecap:round;stroke-linejoin:round"
                 d="m 504.9,347.1 v 7.5 l 6.8,-3 -6.8,-4.5"
                 id="path3490" />
              <path
                 style="fill:none;stroke:#000000;stroke-linecap:round;stroke-linejoin:round"
                 d="m 513.8,250.2 c 16.7,38.3 13.3,66.5 -5.9,99.9"
                 id="path3482"
                 sodipodi:nodetypes="cc" />
            </g>
            <path
               style="fill:none;stroke:#000000;stroke-linecap:round;stroke-linejoin:round"
               d="m 510.8,253.8 1.6,-7.3 4.3,3.2 -5.9,4.1"
               id="path3494"
               sodipodi:nodetypes="cccc" />
          </g>
          <g
             id="g39923"
             transform="translate(1.357,0.166)">
            <path
               style="fill:none;stroke:#000000;stroke-linecap:round;stroke-linejoin:round"
               d="m 450.1,297.3 c -3.9,3.4 -10.4,5.4 -19.7,6"
               id="path3418"
               sodipodi:nodetypes="cc" />
            <path
               style="fill:none;stroke:#000000;stroke-linecap:round;stroke-linejoin:round"
               d="m 430.5,300.8 1.2,4.7 -4.7,-1.4 3.5,-3.3"
               id="path3426"
               sodipodi:nodetypes="cccc" />
          </g>
        </g>
      </g>
      <g
         id="g46306"
         transform="translate(-57.22,-230)">
        <path
           style="fill:none;stroke:#ffd74f;stroke-width:12;stroke-linecap:round;stroke-linejoin:round;stroke-miterlimit:10;stroke-opacity:0.502"
           d="m 423.9,301.6 v 16.9"
           id="path3550" />
        <g
           id="g35148"
           transform="rotate(-90,248.5,124.9)">
          <g
             id="use35130"
             transform="translate(54.169998,301.79999)">
            <path
               d="M 1.625,-1.266 2.813,-3.109 H 2.344 L 1.437,-1.625 0.5,-3.109 H 0.0156 L 1.219,-1.266 V 0 h 0.406 z m 0,0"
               id="path4037" />
          </g>
          <g
             id="use35132"
             transform="translate(58.209999,301.79999)">
            <path
               d="m 1.562,0 1.11,-3.109 H 2.234 l -0.89,2.6871 H 1.328 L 0.4375,-3.109 H 0 L 1.094,0 Z m 0,0"
               id="path4045" />
          </g>
          <g
             id="use35134"
             transform="translate(60.639999,301.79999)">
            <path
               d="M 2.281,-0.0156 C 2.219,0.0234 2.129,0.0469 2.016,0.0469 1.91,0.0469 1.832,0.0195 1.781,-0.0312 1.727,-0.082 1.703,-0.1719 1.703,-0.2969 1.598,-0.1719 1.477,-0.082 1.344,-0.0312 1.207,0.0195 1.062,0.0469 0.9063,0.0469 0.8008,0.0469 0.7031,0.0352 0.6094,0.0156 0.5156,-0.0039 0.4375,-0.0391 0.375,-0.0937 0.3125,-0.1445 0.2578,-0.207 0.2187,-0.2812 0.1758,-0.3633 0.1562,-0.4609 0.1562,-0.5781 c 0,-0.125 0.0196,-0.2266 0.0625,-0.3125 C 0.2578,-0.9727 0.3164,-1.039 0.3906,-1.094 0.4609,-1.145 0.5469,-1.18 0.6406,-1.203 0.7344,-1.234 0.8281,-1.254 0.9219,-1.266 1.023,-1.285 1.117,-1.301 1.203,-1.312 1.297,-1.32 1.379,-1.336 1.453,-1.359 1.523,-1.379 1.578,-1.406 1.609,-1.437 1.648,-1.477 1.672,-1.535 1.672,-1.609 1.672,-1.68 1.656,-1.742 1.625,-1.797 1.602,-1.848 1.566,-1.883 1.516,-1.906 1.461,-1.937 1.406,-1.957 1.344,-1.969 1.289,-1.977 1.234,-1.984 1.172,-1.984 c -0.156,0 -0.2892,0.031 -0.3908,0.093 -0.1054,0.063 -0.164,0.18 -0.1718,0.344 H 0.25 c 0,-0.144 0.0234,-0.265 0.0781,-0.359 C 0.3789,-2 0.4453,-2.078 0.5312,-2.141 0.625,-2.203 0.7227,-2.242 0.8281,-2.266 0.9414,-2.297 1.066,-2.313 1.203,-2.313 c 0.094,0 0.192,0.012 0.297,0.032 0.102,0.011 0.191,0.043 0.266,0.093 0.082,0.043 0.148,0.106 0.203,0.188 0.051,0.074 0.078,0.18 0.078,0.313 v 1.1558 c 0,0.0937 0.004,0.164 0.016,0.2031 0.007,0.0312 0.039,0.0469 0.093,0.0469 0.032,0 0.071,-0.004 0.125,-0.0157 z M 1.672,-1.156 C 1.629,-1.125 1.566,-1.098 1.484,-1.078 1.41,-1.066 1.332,-1.055 1.25,-1.047 1.164,-1.035 1.082,-1.023 1,-1.016 c -0.0859,0.012 -0.1641,0.0316 -0.2344,0.0629 -0.0625,0.0312 -0.1172,0.0742 -0.1562,0.125 -0.043,0.0547 -0.0625,0.125 -0.0625,0.2187 0,0.0625 0.0078,0.1172 0.0312,0.1563 0.0313,0.0429 0.0625,0.0781 0.0938,0.1094 0.039,0.0234 0.0859,0.039 0.1406,0.0468 0.0508,0.0117 0.1094,0.0157 0.1719,0.0157 0.1246,0 0.2266,-0.0157 0.3126,-0.0469 0.094,-0.0313 0.164,-0.0703 0.219,-0.125 0.05,-0.0508 0.086,-0.1016 0.109,-0.1563 0.031,-0.0625 0.047,-0.1172 0.047,-0.1718 z m 0,0"
               id="path4049" />
          </g>
          <g
             id="use35136"
             transform="translate(62.98,301.79999)">
            <path
               d="M 0.2656,-2.25 V 0 h 0.375 v -1 c 0,-0.145 0.0078,-0.273 0.0313,-0.391 C 0.7031,-1.504 0.75,-1.598 0.8125,-1.672 0.8828,-1.754 0.9727,-1.812 1.078,-1.844 1.18,-1.883 1.305,-1.906 1.453,-1.906 v -0.407 c -0.199,0 -0.367,0.047 -0.4999,0.141 -0.125,0.086 -0.2344,0.215 -0.3281,0.391 H 0.6094 V -2.25 Z m 0,0"
               id="path3993" />
          </g>
          <g
             id="use35138"
             transform="translate(64.43,301.79999)">
            <path
               d="m 0.6719,-2.656 v -0.453 h -0.375 v 0.453 z M 0.2969,-2.25 V 0 h 0.375 v -2.25 z m 0,0"
               id="path4001" />
          </g>
          <g
             id="use35140"
             transform="translate(65.400002,301.79999)">
            <path
               d="M 2.281,-0.0156 C 2.219,0.0234 2.129,0.0469 2.016,0.0469 1.91,0.0469 1.832,0.0195 1.781,-0.0312 1.727,-0.082 1.703,-0.1719 1.703,-0.2969 1.598,-0.1719 1.477,-0.082 1.344,-0.0312 1.207,0.0195 1.062,0.0469 0.9063,0.0469 0.8008,0.0469 0.7031,0.0352 0.6094,0.0156 0.5156,-0.0039 0.4375,-0.0391 0.375,-0.0937 0.3125,-0.1445 0.2578,-0.207 0.2187,-0.2812 0.1758,-0.3633 0.1562,-0.4609 0.1562,-0.5781 c 0,-0.125 0.0196,-0.2266 0.0625,-0.3125 C 0.2578,-0.9727 0.3164,-1.039 0.3906,-1.094 0.4609,-1.145 0.5469,-1.18 0.6406,-1.203 0.7344,-1.234 0.8281,-1.254 0.9219,-1.266 1.023,-1.285 1.117,-1.301 1.203,-1.312 1.297,-1.32 1.379,-1.336 1.453,-1.359 1.523,-1.379 1.578,-1.406 1.609,-1.437 1.648,-1.477 1.672,-1.535 1.672,-1.609 1.672,-1.68 1.656,-1.742 1.625,-1.797 1.602,-1.848 1.566,-1.883 1.516,-1.906 1.461,-1.937 1.406,-1.957 1.344,-1.969 1.289,-1.977 1.234,-1.984 1.172,-1.984 c -0.156,0 -0.2892,0.031 -0.3908,0.093 -0.1054,0.063 -0.164,0.18 -0.1718,0.344 H 0.25 c 0,-0.144 0.0234,-0.265 0.0781,-0.359 C 0.3789,-2 0.4453,-2.078 0.5312,-2.141 0.625,-2.203 0.7227,-2.242 0.8281,-2.266 0.9414,-2.297 1.066,-2.313 1.203,-2.313 c 0.094,0 0.192,0.012 0.297,0.032 0.102,0.011 0.191,0.043 0.266,0.093 0.082,0.043 0.148,0.106 0.203,0.188 0.051,0.074 0.078,0.18 0.078,0.313 v 1.1558 c 0,0.0937 0.004,0.164 0.016,0.2031 0.007,0.0312 0.039,0.0469 0.093,0.0469 0.032,0 0.071,-0.004 0.125,-0.0157 z M 1.672,-1.156 C 1.629,-1.125 1.566,-1.098 1.484,-1.078 1.41,-1.066 1.332,-1.055 1.25,-1.047 1.164,-1.035 1.082,-1.023 1,-1.016 c -0.0859,0.012 -0.1641,0.0316 -0.2344,0.0629 -0.0625,0.0312 -0.1172,0.0742 -0.1562,0.125 -0.043,0.0547 -0.0625,0.125 -0.0625,0.2187 0,0.0625 0.0078,0.1172 0.0312,0.1563 0.0313,0.0429 0.0625,0.0781 0.0938,0.1094 0.039,0.0234 0.0859,0.039 0.1406,0.0468 0.0508,0.0117 0.1094,0.0157 0.1719,0.0157 0.1246,0 0.2266,-0.0157 0.3126,-0.0469 0.094,-0.0313 0.164,-0.0703 0.219,-0.125 0.05,-0.0508 0.086,-0.1016 0.109,-0.1563 0.031,-0.0625 0.047,-0.1172 0.047,-0.1718 z m 0,0"
               id="path4053" />
          </g>
          <g
             id="use35142"
             transform="translate(67.739998,301.79999)">
            <path
               d="M 0.2969,-3.109 V 0 h 0.3593 v -0.2969 h 0.0157 c 0.039,0.0625 0.0859,0.1211 0.1406,0.1719 0.0625,0.043 0.125,0.0781 0.1875,0.1094 0.07,0.0195 0.141,0.0351 0.203,0.0468 0.07,0.0079 0.141,0.0157 0.203,0.0157 0.164,0 0.313,-0.0313 0.438,-0.0938 0.133,-0.0625 0.242,-0.1445 0.328,-0.25 C 2.254,-0.3984 2.316,-0.5195 2.359,-0.6562 2.398,-0.8008 2.422,-0.957 2.422,-1.125 2.422,-1.281 2.398,-1.426 2.359,-1.562 2.316,-1.707 2.254,-1.832 2.172,-1.937 2.086,-2.051 1.977,-2.141 1.844,-2.203 c -0.125,-0.07 -0.278,-0.11 -0.453,-0.11 -0.157,0 -0.305,0.032 -0.4379,0.094 -0.125,0.055 -0.2187,0.141 -0.2812,0.266 H 0.6562 v -1.156 z m 1.7341,1.968 c 0,0.106 -0.011,0.2113 -0.031,0.3129 -0.023,0.1054 -0.059,0.1992 -0.109,0.2812 -0.055,0.086 -0.125,0.1524 -0.219,0.2032 -0.086,0.0429 -0.188,0.0625 -0.313,0.0625 -0.125,0 -0.234,-0.0196 -0.328,-0.0625 C 0.9375,-0.3945 0.8633,-0.457 0.8125,-0.5312 0.7578,-0.6133 0.7187,-0.707 0.6875,-0.8125 0.6641,-0.9141 0.6562,-1.02 0.6562,-1.125 c 0,-0.102 0.0079,-0.207 0.0313,-0.312 0.0195,-0.102 0.0547,-0.192 0.1094,-0.266 0.0625,-0.082 0.1328,-0.149 0.2191,-0.203 0.093,-0.051 0.203,-0.078 0.328,-0.078 0.113,0 0.211,0.027 0.297,0.078 0.093,0.043 0.164,0.105 0.218,0.187 0.063,0.074 0.102,0.164 0.125,0.266 0.032,0.105 0.047,0.211 0.047,0.312 z m 0,0"
               id="path3997" />
          </g>
          <g
             id="use35144"
             transform="translate(70.330002,301.79999)">
            <path
               d="M 0.2969,-3.109 V 0 h 0.375 v -3.109 z m 0,0"
               id="path4005" />
          </g>
          <g
             id="use35146"
             transform="translate(71.300003,301.79999)">
            <path
               d="M 1.844,-1.344 H 0.5469 c 0.0078,-0.082 0.0312,-0.16 0.0625,-0.234 0.0312,-0.082 0.0703,-0.149 0.125,-0.203 0.0508,-0.063 0.1133,-0.11 0.1875,-0.141 0.0821,-0.039 0.1721,-0.062 0.2651,-0.062 0.094,0 0.176,0.023 0.25,0.062 0.083,0.031 0.149,0.078 0.204,0.141 0.062,0.054 0.109,0.121 0.14,0.203 0.031,0.074 0.051,0.152 0.063,0.234 z m 0.359,0.6253 H 1.828 C 1.797,-0.5703 1.727,-0.4609 1.625,-0.3906 1.531,-0.3164 1.406,-0.2812 1.25,-0.2812 1.125,-0.2812 1.016,-0.2969 0.9219,-0.3281 0.8359,-0.3672 0.7656,-0.4258 0.7031,-0.5 0.6484,-0.5703 0.6094,-0.6484 0.5781,-0.7344 0.5547,-0.8281 0.5469,-0.9219 0.5469,-1.016 H 2.234 c 0.008,-0.132 0,-0.273 -0.031,-0.421 C 2.172,-1.594 2.113,-1.734 2.031,-1.859 1.945,-1.992 1.836,-2.102 1.703,-2.188 1.578,-2.27 1.414,-2.313 1.219,-2.313 c -0.157,0 -0.3049,0.032 -0.4378,0.094 -0.125,0.063 -0.2343,0.149 -0.3281,0.25 -0.0937,0.106 -0.1679,0.231 -0.2187,0.375 -0.0547,0.137 -0.0782,0.289 -0.0782,0.453 0.0079,0.1801 0.0352,0.3402 0.0782,0.4848 0.039,0.1484 0.1093,0.2734 0.2031,0.375 0.0937,0.1054 0.2031,0.1875 0.3281,0.25 0.1328,0.0507 0.2894,0.0781 0.4684,0.0781 0.258,0 0.473,-0.0625 0.641,-0.1875 0.164,-0.125 0.273,-0.3164 0.328,-0.5781 z m 0,0"
               id="path3925" />
          </g>
        </g>
      </g>
      <path
         style="fill:none;stroke:#a5228d;stroke-width:12;stroke-linecap:round;stroke-linejoin:round;stroke-miterlimit:10;stroke-opacity:0.502"
         d="m 421.4,134 h 20.9"
         id="path3282" />
      <g
         id="g35168"
         transform="translate(274.9,-238.5)">
        <g
           id="use35150"
           transform="translate(147.39999,374)">
          <path
             d="M 1.078,-1.594 0,0 H 0.4687 L 1.328,-1.281 2.156,0 H 2.672 L 1.578,-1.594 2.609,-3.109 H 2.141 L 1.328,-1.891 0.5469,-3.109 H 0.0625 Z m 0,0"
             id="path4041" />
        </g>
        <g
           id="use35152"
           transform="translate(151.2,374)">
          <path
             d="m 1.562,0 1.11,-3.109 H 2.234 l -0.89,2.6871 H 1.328 L 0.4375,-3.109 H 0 L 1.094,0 Z m 0,0"
             id="path3921" />
        </g>
        <g
           id="use35154"
           transform="translate(153.7,374)">
          <path
             d="M 2.281,-0.0156 C 2.219,0.0234 2.129,0.0469 2.016,0.0469 1.91,0.0469 1.832,0.0195 1.781,-0.0312 1.727,-0.082 1.703,-0.1719 1.703,-0.2969 1.598,-0.1719 1.477,-0.082 1.344,-0.0312 1.207,0.0195 1.062,0.0469 0.9063,0.0469 0.8008,0.0469 0.7031,0.0352 0.6094,0.0156 0.5156,-0.0039 0.4375,-0.0391 0.375,-0.0937 0.3125,-0.1445 0.2578,-0.207 0.2187,-0.2812 0.1758,-0.3633 0.1562,-0.4609 0.1562,-0.5781 c 0,-0.125 0.0196,-0.2266 0.0625,-0.3125 C 0.2578,-0.9727 0.3164,-1.039 0.3906,-1.094 0.4609,-1.145 0.5469,-1.18 0.6406,-1.203 0.7344,-1.234 0.8281,-1.254 0.9219,-1.266 1.023,-1.285 1.117,-1.301 1.203,-1.312 1.297,-1.32 1.379,-1.336 1.453,-1.359 1.523,-1.379 1.578,-1.406 1.609,-1.437 1.648,-1.477 1.672,-1.535 1.672,-1.609 1.672,-1.68 1.656,-1.742 1.625,-1.797 1.602,-1.848 1.566,-1.883 1.516,-1.906 1.461,-1.937 1.406,-1.957 1.344,-1.969 1.289,-1.977 1.234,-1.984 1.172,-1.984 c -0.156,0 -0.2892,0.031 -0.3908,0.093 -0.1054,0.063 -0.164,0.18 -0.1718,0.344 H 0.25 c 0,-0.144 0.0234,-0.265 0.0781,-0.359 C 0.3789,-2 0.4453,-2.078 0.5312,-2.141 0.625,-2.203 0.7227,-2.242 0.8281,-2.266 0.9414,-2.297 1.066,-2.313 1.203,-2.313 c 0.094,0 0.192,0.012 0.297,0.032 0.102,0.011 0.191,0.043 0.266,0.093 0.082,0.043 0.148,0.106 0.203,0.188 0.051,0.074 0.078,0.18 0.078,0.313 v 1.1558 c 0,0.0937 0.004,0.164 0.016,0.2031 0.007,0.0312 0.039,0.0469 0.093,0.0469 0.032,0 0.071,-0.004 0.125,-0.0157 z M 1.672,-1.156 C 1.629,-1.125 1.566,-1.098 1.484,-1.078 1.41,-1.066 1.332,-1.055 1.25,-1.047 1.164,-1.035 1.082,-1.023 1,-1.016 c -0.0859,0.012 -0.1641,0.0316 -0.2344,0.0629 -0.0625,0.0312 -0.1172,0.0742 -0.1562,0.125 -0.043,0.0547 -0.0625,0.125 -0.0625,0.2187 0,0.0625 0.0078,0.1172 0.0312,0.1563 0.0313,0.0429 0.0625,0.0781 0.0938,0.1094 0.039,0.0234 0.0859,0.039 0.1406,0.0468 0.0508,0.0117 0.1094,0.0157 0.1719,0.0157 0.1246,0 0.2266,-0.0157 0.3126,-0.0469 0.094,-0.0313 0.164,-0.0703 0.219,-0.125 0.05,-0.0508 0.086,-0.1016 0.109,-0.1563 0.031,-0.0625 0.047,-0.1172 0.047,-0.1718 z m 0,0"
             id="path4017" />
        </g>
        <g
           id="use35156"
           transform="translate(156,374)">
          <path
             d="M 0.2656,-2.25 V 0 h 0.375 v -1 c 0,-0.145 0.0078,-0.273 0.0313,-0.391 C 0.7031,-1.504 0.75,-1.598 0.8125,-1.672 0.8828,-1.754 0.9727,-1.812 1.078,-1.844 1.18,-1.883 1.305,-1.906 1.453,-1.906 v -0.407 c -0.199,0 -0.367,0.047 -0.4999,0.141 -0.125,0.086 -0.2344,0.215 -0.3281,0.391 H 0.6094 V -2.25 Z m 0,0"
             id="path4013" />
        </g>
        <g
           id="use35158"
           transform="translate(157.5,374)">
          <path
             d="m 0.6719,-2.656 v -0.453 h -0.375 v 0.453 z M 0.2969,-2.25 V 0 h 0.375 v -2.25 z m 0,0"
             id="path4009" />
        </g>
        <g
           id="use35160"
           transform="translate(158.39999,374)">
          <path
             d="M 2.281,-0.0156 C 2.219,0.0234 2.129,0.0469 2.016,0.0469 1.91,0.0469 1.832,0.0195 1.781,-0.0312 1.727,-0.082 1.703,-0.1719 1.703,-0.2969 1.598,-0.1719 1.477,-0.082 1.344,-0.0312 1.207,0.0195 1.062,0.0469 0.9063,0.0469 0.8008,0.0469 0.7031,0.0352 0.6094,0.0156 0.5156,-0.0039 0.4375,-0.0391 0.375,-0.0937 0.3125,-0.1445 0.2578,-0.207 0.2187,-0.2812 0.1758,-0.3633 0.1562,-0.4609 0.1562,-0.5781 c 0,-0.125 0.0196,-0.2266 0.0625,-0.3125 C 0.2578,-0.9727 0.3164,-1.039 0.3906,-1.094 0.4609,-1.145 0.5469,-1.18 0.6406,-1.203 0.7344,-1.234 0.8281,-1.254 0.9219,-1.266 1.023,-1.285 1.117,-1.301 1.203,-1.312 1.297,-1.32 1.379,-1.336 1.453,-1.359 1.523,-1.379 1.578,-1.406 1.609,-1.437 1.648,-1.477 1.672,-1.535 1.672,-1.609 1.672,-1.68 1.656,-1.742 1.625,-1.797 1.602,-1.848 1.566,-1.883 1.516,-1.906 1.461,-1.937 1.406,-1.957 1.344,-1.969 1.289,-1.977 1.234,-1.984 1.172,-1.984 c -0.156,0 -0.2892,0.031 -0.3908,0.093 -0.1054,0.063 -0.164,0.18 -0.1718,0.344 H 0.25 c 0,-0.144 0.0234,-0.265 0.0781,-0.359 C 0.3789,-2 0.4453,-2.078 0.5312,-2.141 0.625,-2.203 0.7227,-2.242 0.8281,-2.266 0.9414,-2.297 1.066,-2.313 1.203,-2.313 c 0.094,0 0.192,0.012 0.297,0.032 0.102,0.011 0.191,0.043 0.266,0.093 0.082,0.043 0.148,0.106 0.203,0.188 0.051,0.074 0.078,0.18 0.078,0.313 v 1.1558 c 0,0.0937 0.004,0.164 0.016,0.2031 0.007,0.0312 0.039,0.0469 0.093,0.0469 0.032,0 0.071,-0.004 0.125,-0.0157 z M 1.672,-1.156 C 1.629,-1.125 1.566,-1.098 1.484,-1.078 1.41,-1.066 1.332,-1.055 1.25,-1.047 1.164,-1.035 1.082,-1.023 1,-1.016 c -0.0859,0.012 -0.1641,0.0316 -0.2344,0.0629 -0.0625,0.0312 -0.1172,0.0742 -0.1562,0.125 -0.043,0.0547 -0.0625,0.125 -0.0625,0.2187 0,0.0625 0.0078,0.1172 0.0312,0.1563 0.0313,0.0429 0.0625,0.0781 0.0938,0.1094 0.039,0.0234 0.0859,0.039 0.1406,0.0468 0.0508,0.0117 0.1094,0.0157 0.1719,0.0157 0.1246,0 0.2266,-0.0157 0.3126,-0.0469 0.094,-0.0313 0.164,-0.0703 0.219,-0.125 0.05,-0.0508 0.086,-0.1016 0.109,-0.1563 0.031,-0.0625 0.047,-0.1172 0.047,-0.1718 z m 0,0"
             id="path4021" />
        </g>
        <g
           id="use35162"
           transform="translate(160.8,374)">
          <path
             d="M 0.2969,-3.109 V 0 h 0.3593 v -0.2969 h 0.0157 c 0.039,0.0625 0.0859,0.1211 0.1406,0.1719 0.0625,0.043 0.125,0.0781 0.1875,0.1094 0.07,0.0195 0.141,0.0351 0.203,0.0468 0.07,0.0079 0.141,0.0157 0.203,0.0157 0.164,0 0.313,-0.0313 0.438,-0.0938 0.133,-0.0625 0.242,-0.1445 0.328,-0.25 C 2.254,-0.3984 2.316,-0.5195 2.359,-0.6562 2.398,-0.8008 2.422,-0.957 2.422,-1.125 2.422,-1.281 2.398,-1.426 2.359,-1.562 2.316,-1.707 2.254,-1.832 2.172,-1.937 2.086,-2.051 1.977,-2.141 1.844,-2.203 c -0.125,-0.07 -0.278,-0.11 -0.453,-0.11 -0.157,0 -0.305,0.032 -0.4379,0.094 -0.125,0.055 -0.2187,0.141 -0.2812,0.266 H 0.6562 v -1.156 z m 1.7341,1.968 c 0,0.106 -0.011,0.2113 -0.031,0.3129 -0.023,0.1054 -0.059,0.1992 -0.109,0.2812 -0.055,0.086 -0.125,0.1524 -0.219,0.2032 -0.086,0.0429 -0.188,0.0625 -0.313,0.0625 -0.125,0 -0.234,-0.0196 -0.328,-0.0625 C 0.9375,-0.3945 0.8633,-0.457 0.8125,-0.5312 0.7578,-0.6133 0.7187,-0.707 0.6875,-0.8125 0.6641,-0.9141 0.6562,-1.02 0.6562,-1.125 c 0,-0.102 0.0079,-0.207 0.0313,-0.312 0.0195,-0.102 0.0547,-0.192 0.1094,-0.266 0.0625,-0.082 0.1328,-0.149 0.2191,-0.203 0.093,-0.051 0.203,-0.078 0.328,-0.078 0.113,0 0.211,0.027 0.297,0.078 0.093,0.043 0.164,0.105 0.218,0.187 0.063,0.074 0.102,0.164 0.125,0.266 0.032,0.105 0.047,0.211 0.047,0.312 z m 0,0"
             id="path4033" />
        </g>
        <g
           id="use35164"
           transform="translate(163.39999,374)">
          <path
             d="M 0.2969,-3.109 V 0 h 0.375 v -3.109 z m 0,0"
             id="path4029" />
        </g>
        <g
           id="use35166"
           transform="translate(164.3,374)">
          <path
             d="M 1.844,-1.344 H 0.5469 c 0.0078,-0.082 0.0312,-0.16 0.0625,-0.234 0.0312,-0.082 0.0703,-0.149 0.125,-0.203 0.0508,-0.063 0.1133,-0.11 0.1875,-0.141 0.0821,-0.039 0.1721,-0.062 0.2651,-0.062 0.094,0 0.176,0.023 0.25,0.062 0.083,0.031 0.149,0.078 0.204,0.141 0.062,0.054 0.109,0.121 0.14,0.203 0.031,0.074 0.051,0.152 0.063,0.234 z m 0.359,0.6253 H 1.828 C 1.797,-0.5703 1.727,-0.4609 1.625,-0.3906 1.531,-0.3164 1.406,-0.2812 1.25,-0.2812 1.125,-0.2812 1.016,-0.2969 0.9219,-0.3281 0.8359,-0.3672 0.7656,-0.4258 0.7031,-0.5 0.6484,-0.5703 0.6094,-0.6484 0.5781,-0.7344 0.5547,-0.8281 0.5469,-0.9219 0.5469,-1.016 H 2.234 c 0.008,-0.132 0,-0.273 -0.031,-0.421 C 2.172,-1.594 2.113,-1.734 2.031,-1.859 1.945,-1.992 1.836,-2.102 1.703,-2.188 1.578,-2.27 1.414,-2.313 1.219,-2.313 c -0.157,0 -0.3049,0.032 -0.4378,0.094 -0.125,0.063 -0.2343,0.149 -0.3281,0.25 -0.0937,0.106 -0.1679,0.231 -0.2187,0.375 -0.0547,0.137 -0.0782,0.289 -0.0782,0.453 0.0079,0.1801 0.0352,0.3402 0.0782,0.4848 0.039,0.1484 0.1093,0.2734 0.2031,0.375 0.0937,0.1054 0.2031,0.1875 0.3281,0.25 0.1328,0.0507 0.2894,0.0781 0.4684,0.0781 0.258,0 0.473,-0.0625 0.641,-0.1875 0.164,-0.125 0.273,-0.3164 0.328,-0.5781 z m 0,0"
             id="path4025" />
        </g>
      </g>
      <g
         id="g46326"
         transform="translate(-57.22,-230)">
        <path
           style="fill:none;stroke:#249ab5;stroke-width:12;stroke-linecap:round;stroke-linejoin:round;stroke-miterlimit:10;stroke-opacity:0.502"
           d="m 412.7,236 h 99.5"
           id="path3278" />
        <g
           id="g35202"
           transform="translate(345,-0.9518)">
          <g
             id="use35170"
             transform="translate(67.690002,241.60001)">
            <path
               d="M 3.141,-8.297 V 0 h 1.25 V -8.297 H 7.5 V -9.344 H 0.0312 v 1.047 z m 0,0"
               id="path3981" />
          </g>
          <g
             id="use35172"
             transform="translate(75.209999,241.60001)">
            <path
               d="m 2.016,-7.984 v -1.36 H 0.9063 v 1.36 z M 0.9063,-6.766 V 0 H 2.016 v -6.766 z m 0,0"
               id="path3973" />
          </g>
          <g
             id="use35174"
             transform="translate(78.110001,241.60001)">
            <path
               d="M 2.391,-6.766 V -8.797 H 1.266 v 2.031 H 0.125 v 0.985 h 1.141 v 4.297 c 0,0.312 0.031,0.5699 0.093,0.7653 0.063,0.1875 0.157,0.3359 0.282,0.4375 0.125,0.1054 0.289,0.1796 0.5,0.2187 C 2.348,-0.0195 2.594,0 2.875,0 H 3.734 V -0.9844 H 3.219 C 3.039,-0.9844 2.895,-0.9883 2.781,-1 2.676,-1.008 2.594,-1.035 2.531,-1.078 2.477,-1.129 2.441,-1.191 2.422,-1.266 2.398,-1.348 2.391,-1.453 2.391,-1.578 v -4.203 h 1.343 v -0.985 z m 0,0"
               id="path3957" />
          </g>
          <g
             id="use35176"
             transform="translate(82.239998,241.60001)">
            <path
               d="M 0.9063,-9.344 V 0 H 2.016 v -9.344 z m 0,0"
               id="path3953" />
          </g>
          <g
             id="use35178"
             transform="translate(85.139999,241.60001)">
            <path
               d="M 5.531,-4.031 H 1.656 c 0.008,-0.258 0.063,-0.504 0.156,-0.735 0.102,-0.238 0.239,-0.441 0.407,-0.609 0.164,-0.176 0.363,-0.312 0.594,-0.406 0.226,-0.102 0.488,-0.156 0.781,-0.156 0.269,0 0.519,0.054 0.75,0.156 0.238,0.094 0.441,0.23 0.609,0.406 0.176,0.168 0.313,0.371 0.406,0.609 0.102,0.231 0.161,0.477 0.172,0.735 z m 1.078,1.89 H 5.516 C 5.422,-1.703 5.223,-1.375 4.922,-1.156 4.617,-0.9375 4.234,-0.8281 3.766,-0.8281 3.391,-0.8281 3.066,-0.8828 2.797,-1 2.523,-1.125 2.301,-1.289 2.125,-1.5 1.957,-1.707 1.832,-1.941 1.75,-2.203 1.676,-2.473 1.645,-2.754 1.656,-3.047 H 6.719 C 6.738,-3.461 6.703,-3.895 6.609,-4.344 6.516,-4.801 6.348,-5.223 6.109,-5.609 5.867,-5.992 5.551,-6.305 5.156,-6.547 c -0.398,-0.25 -0.898,-0.375 -1.5,-0.375 -0.468,0 -0.898,0.09 -1.281,0.266 -0.387,0.168 -0.727,0.414 -1.016,0.734 -0.281,0.313 -0.4996,0.684 -0.6559,1.11 -0.1562,0.429 -0.2344,0.898 -0.2344,1.406 0.0196,0.523 0.0977,1 0.2344,1.437 0.1328,0.43 0.3359,0.805 0.6089,1.1252 0.27,0.3126 0.602,0.5586 1.001,0.7344 0.394,0.1641 0.863,0.25 1.406,0.25 0.769,0 1.406,-0.1914 1.906,-0.5781 0.508,-0.3828 0.836,-0.9535 0.984,-1.7035 z m 0,0"
               id="path3945" />
          </g>
          <g
             id="use35180"
             transform="translate(95.809998,241.60001)">
            <path
               d="M 7.547,0 9.703,-6.766 H 8.547 L 7.031,-1.234 H 7 L 5.594,-6.766 H 4.375 L 3.016,-1.234 H 2.984 L 1.453,-6.766 H 0.2187 L 2.391,0 H 3.594 L 4.969,-5.375 H 4.984 L 6.359,0 Z m 0,0"
               id="path3941" />
          </g>
          <g
             id="use35182"
             transform="translate(105.7,241.60001)">
            <path
               d="m 2.016,-7.984 v -1.36 H 0.9063 v 1.36 z M 0.9063,-6.766 V 0 H 2.016 v -6.766 z m 0,0"
               id="path3977" />
          </g>
          <g
             id="use35184"
             transform="translate(108.6,241.60001)">
            <path
               d="M 2.391,-6.766 V -8.797 H 1.266 v 2.031 H 0.125 v 0.985 h 1.141 v 4.297 c 0,0.312 0.031,0.5699 0.093,0.7653 0.063,0.1875 0.157,0.3359 0.282,0.4375 0.125,0.1054 0.289,0.1796 0.5,0.2187 C 2.348,-0.0195 2.594,0 2.875,0 H 3.734 V -0.9844 H 3.219 C 3.039,-0.9844 2.895,-0.9883 2.781,-1 2.676,-1.008 2.594,-1.035 2.531,-1.078 2.477,-1.129 2.441,-1.191 2.422,-1.266 2.398,-1.348 2.391,-1.453 2.391,-1.578 v -4.203 h 1.343 v -0.985 z m 0,0"
               id="path3961" />
          </g>
          <g
             id="use35186"
             transform="translate(112.8,241.60001)">
            <path
               d="M 0.8438,-9.344 V 0 H 1.953 v -3.828 c 0,-0.301 0.039,-0.578 0.125,-0.828 0.082,-0.258 0.207,-0.485 0.375,-0.672 0.164,-0.195 0.367,-0.348 0.61,-0.453 0.25,-0.102 0.546,-0.156 0.89,-0.156 0.426,0 0.758,0.121 1,0.359 0.25,0.242 0.375,0.574 0.375,1 V 0 h 1.109 v -4.453 c 0,-0.363 -0.039,-0.695 -0.109,-1 C 6.254,-5.754 6.125,-6.016 5.937,-6.234 5.758,-6.453 5.52,-6.617 5.219,-6.734 4.926,-6.859 4.555,-6.922 4.109,-6.922 3.91,-6.922 3.703,-6.898 3.484,-6.859 3.273,-6.816 3.07,-6.75 2.875,-6.656 2.676,-6.562 2.5,-6.441 2.344,-6.297 2.188,-6.16 2.066,-5.988 1.984,-5.781 H 1.953 v -3.563 z m 0,0"
               id="path3937" />
          </g>
          <g
             id="use35188"
             transform="translate(123.7,241.60001)">
            <path
               d="M 5.437,-4.594 H 6.594 C 6.539,-5 6.43,-5.348 6.266,-5.641 6.098,-5.93 5.883,-6.172 5.625,-6.359 5.375,-6.555 5.082,-6.695 4.75,-6.781 4.414,-6.875 4.055,-6.922 3.672,-6.922 c -0.531,0 -1,0.094 -1.406,0.281 -0.407,0.188 -0.746,0.45 -1.016,0.782 -0.2617,0.324 -0.4609,0.703 -0.5938,1.14 -0.125,0.438 -0.1875,0.914 -0.1875,1.422 0,0.5 0.0665,0.965 0.2032,1.391 0.1328,0.429 0.3321,0.793 0.5941,1.0935 0.269,0.3047 0.601,0.5391 1,0.7031 0.406,0.1641 0.863,0.25 1.375,0.25 0.863,0 1.546,-0.2226 2.046,-0.6718 C 6.187,-0.9883 6.5,-1.633 6.625,-2.469 H 5.484 C 5.41,-1.945 5.219,-1.539 4.906,-1.25 4.602,-0.9688 4.176,-0.8281 3.625,-0.8281 3.281,-0.8281 2.977,-0.8945 2.719,-1.031 2.469,-1.176 2.266,-1.363 2.109,-1.594 1.953,-1.82 1.836,-2.082 1.766,-2.375 1.691,-2.676 1.656,-2.984 1.656,-3.297 c 0,-0.344 0.031,-0.672 0.094,-0.984 0.07,-0.321 0.187,-0.602 0.344,-0.844 0.164,-0.25 0.383,-0.445 0.656,-0.594 0.27,-0.144 0.609,-0.218 1.016,-0.218 0.468,0 0.836,0.121 1.109,0.359 0.281,0.23 0.469,0.558 0.562,0.984 z m 0,0"
               id="path3933" />
          </g>
          <g
             id="use35190"
             transform="translate(130.7,241.60001)">
            <path
               d="m 1.656,-3.375 c 0,-0.414 0.051,-0.781 0.156,-1.094 0.114,-0.32 0.266,-0.593 0.454,-0.812 0.187,-0.219 0.41,-0.379 0.672,-0.485 0.257,-0.113 0.535,-0.171 0.828,-0.171 0.281,0 0.55,0.058 0.812,0.171 0.258,0.106 0.484,0.266 0.672,0.485 0.187,0.219 0.332,0.492 0.437,0.812 0.114,0.313 0.172,0.68 0.172,1.094 0,0.406 -0.058,0.773 -0.172,1.094 C 5.582,-1.969 5.437,-1.703 5.25,-1.484 5.062,-1.273 4.836,-1.113 4.578,-1 4.316,-0.8828 4.047,-0.8281 3.766,-0.8281 3.473,-0.8281 3.195,-0.8828 2.938,-1 2.676,-1.113 2.453,-1.273 2.266,-1.484 2.078,-1.703 1.926,-1.969 1.812,-2.281 1.707,-2.602 1.656,-2.969 1.656,-3.375 Z m -1.1873,0 c 0,0.5 0.0665,0.965 0.2032,1.391 0.1445,0.429 0.3591,0.804 0.6401,1.1246 0.282,0.3125 0.625,0.5586 1.032,0.7344 0.406,0.1758 0.879,0.2656 1.422,0.2656 0.531,0 1,-0.0898 1.406,-0.2656 0.406,-0.1758 0.75,-0.4219 1.031,-0.7344 C 6.484,-1.18 6.691,-1.555 6.828,-1.984 6.973,-2.41 7.047,-2.875 7.047,-3.375 7.047,-3.875 6.973,-4.336 6.828,-4.766 6.691,-5.203 6.484,-5.578 6.203,-5.891 5.922,-6.211 5.578,-6.461 5.172,-6.641 4.766,-6.828 4.297,-6.922 3.766,-6.922 c -0.543,0 -1.016,0.094 -1.422,0.281 -0.407,0.18 -0.75,0.43 -1.032,0.75 -0.281,0.313 -0.4956,0.688 -0.6401,1.125 -0.1367,0.43 -0.2032,0.891 -0.2032,1.391 z m 0,0"
               id="path3929" />
          </g>
          <g
             id="use35192"
             transform="translate(138.2,241.60001)">
            <path
               d="M 0.8438,-6.766 V 0 H 1.953 v -3.828 c 0,-0.301 0.039,-0.578 0.125,-0.828 0.082,-0.258 0.207,-0.485 0.375,-0.672 0.164,-0.195 0.367,-0.348 0.61,-0.453 0.25,-0.102 0.546,-0.156 0.89,-0.156 0.426,0 0.758,0.121 1,0.359 0.25,0.242 0.375,0.574 0.375,1 V 0 h 1.109 v -4.453 c 0,-0.363 -0.039,-0.695 -0.109,-1 C 6.254,-5.754 6.125,-6.016 5.937,-6.234 5.758,-6.453 5.52,-6.617 5.219,-6.734 4.926,-6.859 4.555,-6.922 4.109,-6.922 c -1,0 -1.734,0.406 -2.203,1.219 H 1.891 v -1.063 z m 0,0"
               id="path3989" />
          </g>
          <g
             id="use35194"
             transform="translate(145.5,241.60001)">
            <path
               d="M 2.391,-6.766 V -8.797 H 1.266 v 2.031 H 0.125 v 0.985 h 1.141 v 4.297 c 0,0.312 0.031,0.5699 0.093,0.7653 0.063,0.1875 0.157,0.3359 0.282,0.4375 0.125,0.1054 0.289,0.1796 0.5,0.2187 C 2.348,-0.0195 2.594,0 2.875,0 H 3.734 V -0.9844 H 3.219 C 3.039,-0.9844 2.895,-0.9883 2.781,-1 2.676,-1.008 2.594,-1.035 2.531,-1.078 2.477,-1.129 2.441,-1.191 2.422,-1.266 2.398,-1.348 2.391,-1.453 2.391,-1.578 v -4.203 h 1.343 v -0.985 z m 0,0"
               id="path3965" />
          </g>
          <g
             id="use35196"
             transform="translate(149.60001,241.60001)">
            <path
               d="M 5.531,-4.031 H 1.656 c 0.008,-0.258 0.063,-0.504 0.156,-0.735 0.102,-0.238 0.239,-0.441 0.407,-0.609 0.164,-0.176 0.363,-0.312 0.594,-0.406 0.226,-0.102 0.488,-0.156 0.781,-0.156 0.269,0 0.519,0.054 0.75,0.156 0.238,0.094 0.441,0.23 0.609,0.406 0.176,0.168 0.313,0.371 0.406,0.609 0.102,0.231 0.161,0.477 0.172,0.735 z m 1.078,1.89 H 5.516 C 5.422,-1.703 5.223,-1.375 4.922,-1.156 4.617,-0.9375 4.234,-0.8281 3.766,-0.8281 3.391,-0.8281 3.066,-0.8828 2.797,-1 2.523,-1.125 2.301,-1.289 2.125,-1.5 1.957,-1.707 1.832,-1.941 1.75,-2.203 1.676,-2.473 1.645,-2.754 1.656,-3.047 H 6.719 C 6.738,-3.461 6.703,-3.895 6.609,-4.344 6.516,-4.801 6.348,-5.223 6.109,-5.609 5.867,-5.992 5.551,-6.305 5.156,-6.547 c -0.398,-0.25 -0.898,-0.375 -1.5,-0.375 -0.468,0 -0.898,0.09 -1.281,0.266 -0.387,0.168 -0.727,0.414 -1.016,0.734 -0.281,0.313 -0.4996,0.684 -0.6559,1.11 -0.1562,0.429 -0.2344,0.898 -0.2344,1.406 0.0196,0.523 0.0977,1 0.2344,1.437 0.1328,0.43 0.3359,0.805 0.6089,1.1252 0.27,0.3126 0.602,0.5586 1.001,0.7344 0.394,0.1641 0.863,0.25 1.406,0.25 0.769,0 1.406,-0.1914 1.906,-0.5781 0.508,-0.3828 0.836,-0.9535 0.984,-1.7035 z m 0,0"
               id="path3949" />
          </g>
          <g
             id="use35198"
             transform="translate(156.7,241.60001)">
            <path
               d="M 2.656,-3.563 0.125,0 H 1.469 L 3.359,-2.797 5.234,0 H 6.672 L 4.047,-3.656 6.375,-6.766 H 5.047 l -1.688,2.36 -1.625,-2.36 H 0.2969 Z m 0,0"
               id="path3985" />
          </g>
          <g
             id="use35200"
             transform="translate(163.39999,241.60001)">
            <path
               d="M 2.391,-6.766 V -8.797 H 1.266 v 2.031 H 0.125 v 0.985 h 1.141 v 4.297 c 0,0.312 0.031,0.5699 0.093,0.7653 0.063,0.1875 0.157,0.3359 0.282,0.4375 0.125,0.1054 0.289,0.1796 0.5,0.2187 C 2.348,-0.0195 2.594,0 2.875,0 H 3.734 V -0.9844 H 3.219 C 3.039,-0.9844 2.895,-0.9883 2.781,-1 2.676,-1.008 2.594,-1.035 2.531,-1.078 2.477,-1.129 2.441,-1.191 2.422,-1.266 2.398,-1.348 2.391,-1.453 2.391,-1.578 v -4.203 h 1.343 v -0.985 z m 0,0"
               id="path3969" />
          </g>
        </g>
      </g>
      <text
         xml:space="preserve"
         style="font-size:13px;line-height:1em;font-family:handlee;-inkscape-font-specification:'handlee, Normal';letter-spacing:0.75px;word-spacing:0px;text-anchor:middle;stroke-width:0.75"
         x="408.10001"
         y="34.5"
         id="text35208"><tspan
           sodipodi:role="line"
           x="408.10001"
           y="34.5"
           id="tspan35206"
           style="font-family:'handlee';">integration</tspan><tspan
           sodipodi:role="line"
           x="408.10001"
           y="47.5"
           style="font-family:'handlee';">with domain</tspan><tspan
           sodipodi:role="line"
           x="408.47501"
           y="60.5"
           id="tspan35424"
           style="font-family:'handlee';">knowledge</tspan></text>
    </g>
  </g>
</svg>
