<?xml version="1.0" encoding="UTF-8" standalone="no"?>
<!-- Created with Inkscape (http://www.inkscape.org/) -->

<svg
   width="2in"
   height="1.5962036in"
   viewBox="0 0 50.8 40.54357"
   version="1.1"
   id="svg1"
   xml:space="preserve"
   inkscape:version="1.4.2 (ebf0e940d0, 2025-05-08)"
   sodipodi:docname="nppd.svg"
   xmlns:inkscape="http://www.inkscape.org/namespaces/inkscape"
   xmlns:sodipodi="http://sodipodi.sourceforge.net/DTD/sodipodi-0.dtd"
   xmlns="http://www.w3.org/2000/svg"
   xmlns:svg="http://www.w3.org/2000/svg"><sodipodi:namedview
     id="namedview1"
     pagecolor="#ffffff"
     bordercolor="#000000"
     borderopacity="0.25"
     inkscape:showpageshadow="2"
     inkscape:pageopacity="0.0"
     inkscape:pagecheckerboard="0"
     inkscape:deskcolor="#d1d1d1"
     inkscape:document-units="mm"
     inkscape:zoom="2.0661644"
     inkscape:cx="305.3968"
     inkscape:cy="44.042961"
     inkscape:window-width="1694"
     inkscape:window-height="1071"
     inkscape:window-x="0"
     inkscape:window-y="0"
     inkscape:window-maximized="1"
     inkscape:current-layer="layer1" /><defs
     id="defs1" /><g
     inkscape:label="Layer 1"
     inkscape:groupmode="layer"
     id="layer1"
     transform="translate(-123.69915,-200.9057)"><path
       style="fill:#0560a7;stroke-width:0.733492"
       d="m 126.05114,241.27077 c -0.72978,-0.2253 -1.41557,-0.87846 -1.93421,-1.84219 -0.41711,-0.77503 -0.41778,-0.79965 -0.41778,-15.42854 v -14.65227 l 0.44449,-0.83241 c 0.81561,-1.52744 1.06314,-1.59191 6.11501,-1.59274 3.50423,-5.8e-4 4.5389,0.0583 4.97359,0.28311 0.65476,0.33859 0.94884,0.78022 5.12368,7.69444 l 3.23538,5.35835 -7.3e-4,9.29392 c -6.5e-4,5.52259 -0.0789,9.57404 -0.19284,9.98421 -0.10547,0.37966 -0.45994,0.94731 -0.78771,1.26146 l -0.59595,0.57118 -7.70176,0.037 c -4.23597,0.0204 -7.95334,-0.0406 -8.26082,-0.13555 z m 32.5333,-0.0165 c -0.34621,-0.10262 -0.93169,-0.48879 -1.30106,-0.85815 -0.36937,-0.36937 -2.4834,-3.70744 -4.69785,-7.41795 -7.56572,-12.67702 -15.57477,-25.54806 -16.36458,-26.2989 l -0.76555,-0.72775 h -4.96063 -4.96063 l -0.83928,0.77362 c -0.46161,0.4255 -0.88167,0.73125 -0.93346,0.67945 -0.0518,-0.0518 -0.0651,-0.94574 -0.0296,-1.98656 0.079,-2.31474 0.53876,-3.40001 1.72538,-4.07248 0.74986,-0.42495 0.89489,-0.43353 7.38125,-0.43666 6.55095,-0.003 6.6248,10e-4 7.46844,0.44739 0.46862,0.24782 1.1293,0.83731 1.46816,1.30997 0.6498,0.90638 5.88816,9.4521 12.76854,20.83025 6.63161,10.96676 7.24895,11.92123 8.11736,12.5503 l 0.78374,0.56774 h 4.56479 4.56479 l 0.84347,-0.88028 c 1.04348,-1.08905 1.13257,-0.94389 0.96707,1.57563 -0.13356,2.03317 -0.56272,3.14558 -1.43396,3.7169 -0.47026,0.30838 -1.17984,0.34603 -7.12957,0.37826 -3.77881,0.0205 -6.8768,-0.0441 -7.23681,-0.15078 z m 14.81359,-1.59395 c 0.66304,-0.77117 0.58017,-1.01189 -0.18547,-0.53869 -0.62583,0.38678 -0.91276,0.40396 -6.74739,0.40396 h -6.09376 l -0.70768,-0.48088 c -0.85689,-0.58227 -1.44543,-1.50305 -10.48444,-16.40319 -9.1818,-15.13553 -9.61639,-15.8477 -10.39634,-17.0369 -1.05961,-1.61562 -0.95816,-1.59381 -7.41125,-1.59381 h -5.64051 l -0.72426,0.66373 c -0.85446,0.78306 -0.75402,1.07789 0.17437,0.51188 0.6133,-0.3739 0.95412,-0.39791 5.65615,-0.3986 5.55296,-7.3e-4 5.94034,0.0672 6.79128,1.19162 0.71301,0.94219 3.46709,5.36171 9.0529,14.52731 2.69957,4.42964 5.85998,9.55841 7.02314,11.39726 1.16316,1.83884 2.56251,4.10946 3.10967,5.04581 0.54715,0.93636 1.22354,1.95325 1.50309,2.25978 0.97781,1.07222 1.10801,1.08885 8.14251,1.04009 l 6.46982,-0.0448 z m -1.62939,-1.2278 c 0.68263,-0.11287 1.51534,-0.67689 1.51534,-1.02639 0,-0.09 -0.32749,-0.0468 -0.72775,0.0961 -0.52608,0.18774 -1.96479,0.2609 -5.19137,0.26397 -5.07457,0.005 -5.55707,-0.1017 -6.63559,-1.46524 -0.32792,-0.41458 -1.79873,-2.7624 -3.26846,-5.21738 -1.46973,-2.45499 -3.59039,-5.94824 -4.71258,-7.76279 -1.12219,-1.81456 -3.69799,-6.05013 -5.72399,-9.4124 -5.11258,-8.48459 -6.43804,-10.54581 -7.22665,-11.23823 l -0.6834,-0.60002 h -6.57672 -6.57674 l -0.5971,0.50243 c -0.71192,0.59903 -0.79977,1.03349 -0.11875,0.58727 0.41555,-0.27228 1.30637,-0.31342 6.78569,-0.31342 h 6.30735 l 0.66375,0.58278 c 0.66344,0.58251 3.52862,5.04923 7.34433,11.44955 1.11361,1.86791 3.12197,5.14285 4.46302,7.27762 2.56431,4.08203 5.22681,8.40068 7.77703,12.61453 0.83977,1.3876 1.68185,2.68125 1.87129,2.87479 0.74253,0.75856 1.66881,0.89226 6.22827,0.89892 2.40162,0.004 4.68898,-0.047 5.08303,-0.11207 z m -8.09111,-3.15137 c -0.32021,-0.19888 -0.77237,-0.56971 -1.00479,-0.82407 -0.44085,-0.48246 -3.88023,-5.92988 -6.62046,-10.48574 l -1.59306,-2.64859 7.2e-4,-8.99559 c 7.4e-4,-9.9965 -0.0765,-9.37517 1.34225,-10.79388 l 0.62758,-0.62758 h 7.94627 7.94627 l 0.86788,0.79998 c 0.55624,0.51273 0.94044,1.06945 1.06995,1.55039 0.13407,0.49793 0.18341,5.72997 0.14664,15.5504 -0.0612,16.33043 0.003,15.51862 -1.29704,16.39383 -0.63536,0.42769 -0.80892,0.44387 -4.75471,0.44317 -3.65661,-6.5e-4 -4.15766,-0.0395 -4.6775,-0.36232 z"
       id="path1" /></g></svg>
