<?xml version="1.0" encoding="UTF-8" standalone="no"?>
<!-- Created with Inkscape (http://www.inkscape.org/) -->

<svg
   version="1.1"
   id="svg226"
   width="2.9999959in"
   height="2.927in"
   viewBox="0 0 287.9996 280.99199"
   sodipodi:docname="TAMU.svg"
   inkscape:export-filename="TAMU.png"
   inkscape:export-xdpi="96"
   inkscape:export-ydpi="96"
   inkscape:version="1.2.2 (b0a8486541, 2022-12-01)"
   xmlns:inkscape="http://www.inkscape.org/namespaces/inkscape"
   xmlns:sodipodi="http://sodipodi.sourceforge.net/DTD/sodipodi-0.dtd"
   xmlns="http://www.w3.org/2000/svg"
   xmlns:svg="http://www.w3.org/2000/svg">
  <defs
     id="defs230" />
  <sodipodi:namedview
     id="namedview228"
     pagecolor="#ffffff"
     bordercolor="#000000"
     borderopacity="0.25"
     inkscape:showpageshadow="2"
     inkscape:pageopacity="0.0"
     inkscape:pagecheckerboard="0"
     inkscape:deskcolor="#d1d1d1"
     showgrid="false"
     inkscape:zoom="1.5870307"
     inkscape:cx="-16.69785"
     inkscape:cy="172.64946"
     inkscape:window-width="3790"
     inkscape:window-height="2111"
     inkscape:window-x="50"
     inkscape:window-y="0"
     inkscape:window-maximized="1"
     inkscape:current-layer="g232"
     inkscape:document-units="in" />
  <g
     inkscape:groupmode="layer"
     inkscape:label="Image"
     id="g232"
     transform="translate(-456.00668,-463.55885)">
    <path
       style="fill:#651c32;fill-opacity:1;stroke-width:1"
       d="m 667.5268,743.70018 c -6.46141,-0.50686 -12.1579,-0.74693 -18.05379,-0.7609 l -8.61378,-0.0204 -3.86622,-2.12376 c -3.22046,-1.76906 -5.49401,-2.66808 -13.61188,-5.38255 l -9.74565,-3.25874 -1.66959,-6.69747 -1.66958,-6.69749 -2.13913,-1.95072 -2.13912,-1.95075 -1.06592,-5.24925 c -0.58625,-2.88711 -1.22199,-5.68604 -1.41275,-6.21987 -0.26717,-0.74767 -1.06738,-1.40007 -3.484,-2.84045 l -3.13718,-1.86982 -1.03329,-2.75957 c -0.5683,-1.51776 -1.49338,-3.4433 -2.05572,-4.27896 l -1.02242,-1.51936 h -2.42515 -2.42513 l -2.97504,-7.60002 c -1.63627,-4.1814 -3.96495,-9.91418 -5.17486,-12.74092 -1.20991,-2.82673 -2.19983,-5.38195 -2.19983,-5.67827 0,-0.30079 -2.27961,-2.48293 -5.16116,-4.94049 l -5.16117,-4.40172 -2.75883,-0.35447 c -2.81988,-0.3623 -6.36948,-0.11555 -6.73003,0.46784 -0.10459,0.16923 -0.6068,2.7696 -1.11601,5.77858 l -0.92584,5.47088 -1.57861,0.4688 c -0.86823,0.25784 -2.06617,0.56026 -2.66208,0.67205 -1.27816,0.23979 -1.50304,0.48359 -3.19602,3.46502 l -1.28973,2.2713 -8.79027,0.0813 -8.79027,0.0813 -2.2026,-1.76127 c -1.95867,-1.56621 -2.36725,-1.76127 -3.68925,-1.76127 -1.40494,0 -1.59993,-0.11431 -3.54815,-2.08 l -2.06151,-2.08 h -2.14504 -2.14504 l -1.9908,-2.23984 c -1.76675,-1.98792 -2.12059,-2.24035 -3.1442,-2.24304 -1.10358,-0.003 -1.3208,-0.21374 -5.02773,-4.88 -3.07486,-3.87061 -4.37073,-5.83443 -6.28,-9.51697 -2.2489,-4.3376 -2.44109,-4.8694 -2.94899,-8.16 -0.51086,-3.30973 -1.04239,-4.80896 -3.34683,-9.44 -0.13137,-0.264 -2.69405,-2.136 -5.69484,-4.16 l -5.45599,-3.68001 -2.35685,-3.68 c -2.85811,-4.46266 -3.76826,-5.50097 -6.58227,-7.5091 -1.40094,-0.99974 -4.43586,-4.02405 -8.49295,-8.46327 l -6.31303,-6.90763 -0.007,-10.32001 -0.007,-10.32 h 35.52001 35.52001 v -55.20002 -55.20002 h 41.44004 41.44001 v 25.12001 25.12001 h 41.12002 41.12001 l 10e-4,2.48 10e-4,2.48 9.6804,4.73145 9.68043,4.73144 9.27833,0.65037 c 5.10307,0.35771 9.45833,0.70804 9.67834,0.77852 0.30876,0.0989 0.39998,2.41736 0.39998,10.16585 0,5.52075 0.0957,15.26388 0.21264,21.6514 l 0.21267,11.61368 2.34734,2.97216 c 2.34039,2.96333 2.34737,2.97803 2.34737,4.94201 v 1.96984 l 3.99999,6.2374 4.00001,6.2374 -0.003,6.13925 -0.003,6.13926 -1.55789,4.13876 -1.55792,4.13877 1.21431,4.60971 1.2143,4.60971 -3.36833,6.29153 c -2.19523,4.1004 -4.33125,7.56937 -6.13329,9.96069 l -2.76483,3.66916 -8.11992,4.86592 -8.1199,4.86593 -3.56009,5.84423 -3.56009,5.84424 -6.88001,3.34776 -6.88,3.34775 -8.32,8.76568 c -14.06735,14.82089 -12.85361,13.32928 -13.94051,17.13192 -1.80643,6.31997 -1.25522,8.76864 4.46343,19.82813 l 3.55707,6.87915 v 9.33051 9.3305 l -1.36,-0.0391 c -0.748,-0.0216 -5.608,-0.37233 -10.8,-0.77959 z m 6.32768,-10.77295 0.0877,-5.34346 -3.39977,-6.79366 c -4.5316,-9.05535 -5.5756,-12.06826 -5.5756,-16.09088 0,-2.57642 0.19665,-3.7488 1.27513,-7.60205 l 1.27513,-4.55587 2.67079,-2.73123 c 1.46893,-1.50216 6.71143,-6.97922 11.65,-12.17122 l 8.97921,-9.44 6.38663,-3.01741 6.38662,-3.01742 3.5431,-5.78232 3.54309,-5.78233 8.26517,-4.96027 8.26515,-4.96026 2.13065,-2.79877 c 2.04528,-2.68664 7.62936,-12.62475 7.62936,-13.57816 0,-0.25328 -0.432,-2.17167 -0.96,-4.26308 -0.528,-2.09141 -0.96,-4.05233 -0.96,-4.3576 0,-0.30527 0.72,-2.47615 1.59999,-4.82418 l 1.6,-4.26914 -0.002,-4.71454 -0.002,-4.71454 -3.99362,-6.24001 c -3.88649,-6.07261 -3.99375,-6.28807 -3.99852,-8.032 -0.005,-1.73946 -0.0743,-1.88053 -2.37137,-4.81239 l -2.3665,-3.0204 -0.23769,-20.06761 c -0.17021,-14.37036 -0.33869,-20.06736 -0.5935,-20.0667 -0.1957,7.2e-4 -3.57543,-0.23429 -7.51051,-0.52177 l -7.1547,-0.52268 -8.76329,-4.27823 c -4.8198,-2.35303 -8.83619,-4.27824 -8.92531,-4.27824 -0.0891,0 -0.16203,1.78534 -0.16203,3.96742 v 3.96742 l 7.92001,3.90429 7.92,3.90429 4.83089,0.33998 4.83087,0.33999 0.20827,6.42831 c 0.11457,3.53557 0.20868,11.55471 0.20913,17.82031 v 11.39201 l 2.4,3.06316 c 2.25056,2.87241 2.4,3.16175 2.4,4.64643 0,1.47838 0.26499,1.99924 4.00001,7.86214 l 3.99999,6.27886 v 3.0774 c 0,2.94831 -0.0764,3.28545 -1.82105,8.03734 l -1.82107,4.95995 1.05881,4.09491 1.05878,4.0949 -2.01391,3.79046 c -1.10765,2.08476 -2.74462,4.73757 -3.63773,5.89514 -1.55518,2.01569 -1.99899,2.32686 -10.49748,7.36 -6.81137,4.03397 -8.87818,5.40407 -8.89316,5.89533 -0.0108,0.352 -1.34561,2.77377 -2.96635,5.38171 l -2.94684,4.7417 -6.10702,2.9383 -6.10702,2.9383 -12.63498,13.2958 -12.63499,13.29581 -1.658,5.93241 c -1.28119,4.59368 -1.65534,6.44456 -1.65534,8.20196 0,2.10994 -0.0506,2.27671 -0.72,2.37178 -0.63952,0.0908 -0.73083,0.31142 -0.8169,1.97347 -0.0957,1.84858 -0.0781,1.89113 1.46207,3.51998 1.11095,1.17497 1.67068,2.09264 1.94765,3.19318 0.21377,0.84943 1.89584,4.55611 3.73793,8.23709 1.84208,3.681 3.34925,6.99881 3.34925,7.3729 0,0.64529 -0.11086,0.67039 -2.16,0.4891 -1.188,-0.1051 -6.264,-0.28299 -11.28001,-0.39533 l -9.12,-0.20422 -2.72,-1.48195 c -1.59145,-0.8671 -5.63558,-2.47774 -9.74708,-3.88195 l -7.02707,-2.4 -1.30321,-5.24828 -1.3032,-5.24827 -1.98065,-1.79175 -1.98065,-1.79172 -0.79319,-3.67999 c -0.43625,-2.02402 -1.27272,-5.18662 -1.85883,-7.02802 l -1.06566,-3.34802 -3.32517,-1.99503 c -3.1912,-1.91465 -3.3543,-2.06659 -4.04782,-3.77125 -0.39746,-0.97692 -2.26193,-3.86455 -4.14329,-6.41696 -3.35901,-4.55713 -3.4425,-4.64074 -4.63414,-4.64074 -1.20539,0 -1.21936,-0.0149 -2.09233,-2.24 l -0.87883,-2.24 h -3.91961 -3.9196 l 1.85105,4.72 c 3.12155,7.95969 2.56539,7.1179 4.71294,7.13345 l 1.85633,0.0134 2.0102,2.71216 c 1.19464,1.61181 2.40601,3.72334 2.98579,5.20453 l 0.97558,2.49237 3.25421,1.95658 3.25422,1.95658 0.72289,2.50545 c 0.3976,1.37799 1.08789,4.30546 1.53399,6.50544 0.68955,3.40059 0.94088,4.11457 1.67711,4.76446 3.53425,3.11976 3.11712,2.33297 4.79799,9.05 l 1.53653,6.14021 8.39174,2.7995 c 6.45333,2.15285 9.2162,3.24838 11.96096,4.74269 l 3.5692,1.94316 7.86481,0.0214 c 4.45584,0.0122 11.05496,0.27276 15.2248,0.6013 4.048,0.31894 7.576,0.55946 7.84,0.5345 0.40182,-0.038 0.49428,-0.91569 0.56768,-5.38886 z m -128.96695,-67.86265 1.3281,-2.33428 2.25557,-0.58502 c 1.24056,-0.32176 2.25566,-0.67533 2.25578,-0.78572 2.4e-4,-0.40198 1.9131,-11.03553 2.07897,-11.55814 0.13578,-0.42782 0.97223,-0.63642 4.08578,-1.01894 3.38897,-0.41635 4.51052,-0.42272 8.34668,-0.0474 l 4.43164,0.43352 6.12836,5.22613 6.12836,5.22614 0.0952,-4.67098 0.0952,-4.67099 -1.21524,-1.07082 c -0.66838,-0.58894 -2.81229,-2.42176 -4.76423,-4.07291 l -3.549,-3.00209 -6.8464,-0.67905 c -4.80222,-0.4763 -7.18218,-0.84804 -7.97101,-1.24504 -0.61853,-0.31129 -1.80861,-0.66573 -2.64461,-0.78765 l -1.52,-0.22166 v 1.28 c 0,1.4281 0.48025,1.22398 -4.25703,1.80938 l -1.37703,0.17017 -1.19133,2.81344 c -0.77327,1.82616 -1.41224,4.09654 -1.82084,6.46984 -0.34624,2.01102 -0.63048,3.75174 -0.63165,3.86827 -10e-4,0.11653 -0.54507,0.3036 -1.20867,0.41572 -1.60603,0.27133 -1.71028,0.36038 -2.91807,2.49241 l -1.04235,1.84 h -2.33391 -2.33391 l -2.20261,-1.75822 c -1.80939,-1.44433 -2.42292,-1.75854 -3.43671,-1.76 -1.0936,-0.002 -1.49711,-0.25681 -3.54423,-2.24178 -2.29431,-2.22467 -2.32223,-2.24 -4.07931,-2.24 h -1.76918 l -1.99079,-2.24001 c -1.5816,-1.77958 -2.17748,-2.24 -2.89904,-2.24 -1.22686,0 -3.5302,-2.91724 -5.68485,-7.2 -1.43966,-2.86159 -1.67001,-3.61693 -2.1782,-7.14249 -0.47528,-3.29727 -0.72807,-4.18757 -1.54462,-5.44 -0.53698,-0.82363 -1.56686,-2.90385 -2.28862,-4.62271 l -1.31229,-3.12519 -3.17739,-2.33381 c -1.74756,-1.2836 -4.52065,-3.23655 -6.16242,-4.3399 -2.82653,-1.89956 -3.1084,-2.19593 -5.30796,-5.581 -2.34187,-3.60408 -4.50448,-5.89256 -7.89379,-8.35326 -0.95327,-0.69209 -3.56922,-3.27766 -5.81322,-5.74571 -3.89675,-4.2858 -4.08,-4.54908 -4.08,-5.86165 v -1.3743 h 35.52001 35.52001 V 531.71881 476.6788 h 28.32001 28.32001 v 18.56 18.56001 h 3.68 3.68 V 491.5588 469.31879 h -35.68001 -35.68001 v 55.20002 55.20002 h -35.52002 -35.52001 v 6.26762 6.26762 l 5.12986,5.65239 c 3.45529,3.80724 6.14512,6.43582 8.24,8.05238 2.86988,2.21459 3.33264,2.73612 5.99015,6.75094 2.71451,4.10092 3.0271,4.44811 5.44,6.04205 1.408,0.93012 4.01895,2.70778 5.80211,3.95035 l 3.24211,2.25924 1.05074,2.57871 c 0.57791,1.4183 1.37757,3.08272 1.77704,3.69872 0.51586,0.79549 0.88097,2.18625 1.26011,4.8 0.49496,3.4121 0.68618,3.98167 2.6266,7.82384 1.50466,2.97932 2.90621,5.16008 4.98727,7.76 2.61499,3.26699 2.99447,3.61617 3.93005,3.61617 0.8792,0 1.33617,0.33823 3.02636,2.24 l 1.9908,2.24 h 1.9024 1.90241 l 2.43098,2.24 c 2.21178,2.03801 2.55318,2.24 3.78615,2.24 1.16083,0 1.62261,0.22765 3.22003,1.58744 l 1.86486,1.58744 6.09633,0.0126 6.09633,0.0126 1.32811,-2.33428 z m 100.87926,-11.90573 v -13.6 h -7.68 -7.68 v -47.68001 -47.68002 h 14.23421 14.23421 l 0.0858,7.6 0.0858,7.6 13.68,0.0834 13.68001,0.0834 v -20.00344 -20.00344 h -69.60003 -69.60002 v 20.00001 20 h 13.60001 13.6 v -7.68 -7.68 h 14.4 14.40001 v 47.68002 47.68001 h -7.68 -7.68001 v 13.6 13.60001 h 28.96001 28.96001 z m -8.88706,4.87332 -2.63294,-2.64668 v -2.23999 -2.23999 l 2.88,-2.86666 2.88,-2.86665 v 7.75333 c 0,4.26433 -0.11118,7.75333 -0.24706,7.75333 -0.13589,0 -1.43189,-1.19101 -2.88,-2.64669 z m -17.67295,-66.2048 v -58.65442 l 2.72,2.70586 2.72001,2.70588 v 53.45918 53.45918 l -2.72001,2.48937 -2.72,2.48938 z m 58.63296,-40.67523 -2.63294,-2.64669 v -7.19999 -7.19999 l 2.88,-2.86666 2.88,-2.86665 v 12.71333 c 0,6.99233 -0.11117,12.71333 -0.24706,12.71333 -0.13588,0 -1.43189,-1.19101 -2.88,-2.64668 z m -122.31298,-23.11333 -2.70587,-2.72 62.39296,0.0102 c 49.1088,0.008 62.286,0.0932 61.8906,0.4 -0.27629,0.2144 -1.86918,1.43382 -3.53976,2.70982 l -3.03741,2.32 h -56.14733 -56.14732 z m 103.61032,138.22307 c 4.69944,-1.96307 5.69472,-8.22658 1.8444,-11.6072 -1.52214,-1.33647 -2.4858,-1.7012 -4.49468,-1.7012 -2.03196,0 -3.24407,0.46101 -4.58805,1.745 -3.69104,3.52631 -2.8216,9.35655 1.70805,11.4537 1.56958,0.72669 3.94065,0.77373 5.53028,0.1097 z m -5.24594,-1.71255 c -2.16656,-1.32113 -3.18367,-4.10789 -2.38384,-6.53142 0.4886,-1.48047 2.49026,-3.27105 3.96617,-3.54794 3.55484,-0.66689 6.84799,2.6908 6.16801,6.28889 -0.28211,1.49275 -1.30644,3.02683 -2.51176,3.76173 -1.372,0.83652 -3.89121,0.85034 -5.23858,0.0287 z m 1.79566,-2.43047 c 0,-1.17334 0.10666,-1.44 0.576,-1.44 0.86702,0 1.344,0.64732 1.344,1.824 0,0.98398 0.0729,1.056 1.06926,1.056 h 1.06927 l -0.22091,-1.45564 c -0.1215,-0.80061 -0.3847,-1.61944 -0.5849,-1.81964 -0.27198,-0.27198 -0.23365,-0.508 0.15165,-0.93375 0.28359,-0.31337 0.51563,-0.9474 0.51563,-1.40894 0,-1.44508 -0.79012,-1.88594 -3.60949,-2.01398 l -2.55051,-0.11582 v 3.87388 3.87389 h 1.12 c 1.11407,0 1.12,-0.008 1.12,-1.44 z m 0,-3.81775 c 0,-1.00885 0.0946,-1.14225 0.81004,-1.14225 1.50133,0 1.39128,1.95701 -0.12272,2.18225 -0.59383,0.0883 -0.68732,-0.0531 -0.68732,-1.04 z m -104.00004,-33.2863 v -6.22403 l -1.73034,-0.096 -1.73034,-0.096 1.31722,-3.1244 1.31722,-3.12441 10.02412,0.0844 10.02412,0.0844 1.269,2.86447 c 0.69796,1.57546 1.26901,2.97946 1.26901,3.12 0,0.14055 -0.792,0.25553 -1.76,0.25553 h -1.76 v 6.24001 6.24 h 12.16 12.16001 v -6.24 -6.24001 h -3.30428 -3.30427 l -8.21573,-19.00101 c -4.51865,-10.45055 -8.21573,-19.09056 -8.21573,-19.20001 0,-0.10944 0.648,-0.19899 1.44,-0.19899 h 1.44 v -6.4 -6.4 h -13.44001 -13.44 v 6.38403 6.38403 l 1.72436,0.096 1.72436,0.096 -8.23039,19.04001 -8.23038,19.04 -3.41398,0.0908 -3.41398,0.0908 v 6.22918 6.22918 h 12.16001 12.16 z m 4.8,-25.33003 c 0,-0.41054 4.27081,-10.04564 4.45039,-10.04025 0.14449,0.004 2.38695,5.0259 4.45628,9.97899 0.0587,0.14042 -1.92133,0.25532 -4.4,0.25532 -2.47867,0 -4.50667,-0.0873 -4.50667,-0.19406 z m 105.60004,25.31407 v -6.24001 h -2.4 -2.4 l 0.0156,-13.36 0.0156,-13.36001 1.38123,2.88 c 4.81858,10.04727 14.01455,28.83497 14.20891,29.02933 0.12781,0.1278 3.74472,-6.96351 8.03759,-15.75848 4.29289,-8.79496 7.85381,-15.99085 7.91318,-15.99085 0.0594,0 0.10794,5.97601 0.10794,13.28001 v 13.28 h -2.4 -2.4 v 6.24001 6.24 h 11.36 11.36001 v -6.24 -6.24001 h -2.40001 -2.4 v -19.2 -19.20001 h 2.4 2.40001 v -6.24 -6.24 l -10.32001,0.005 -10.32,0.005 -6.56,13.71644 c -3.608,7.54405 -6.632,13.67556 -6.72,13.62558 -0.088,-0.05 -3.10886,-6.22458 -6.71302,-13.72135 l -6.553,-13.63046 h -10.007 -10.007 v 6.24 6.24 h 2.24001 2.24 v 19.20001 19.2 h -2.40001 -2.4 v 6.24001 6.24 h 11.36001 11.36 z"
       id="path344" />
  </g>
</svg>
