<?xml version="1.0" encoding="UTF-8" standalone="no"?>
<!-- Created with Inkscape (http://www.inkscape.org/) -->

<svg
   width="35.30426mm"
   height="33.016556mm"
   viewBox="0 0 35.30426 33.016556"
   version="1.1"
   id="svg1"
   xml:space="preserve"
   inkscape:version="1.4.2 (ebf0e940d0, 2025-05-08)"
   sodipodi:docname="UNL.svg"
   xmlns:inkscape="http://www.inkscape.org/namespaces/inkscape"
   xmlns:sodipodi="http://sodipodi.sourceforge.net/DTD/sodipodi-0.dtd"
   xmlns="http://www.w3.org/2000/svg"
   xmlns:svg="http://www.w3.org/2000/svg"><sodipodi:namedview
     id="namedview1"
     pagecolor="#ffffff"
     bordercolor="#000000"
     borderopacity="0.25"
     inkscape:showpageshadow="2"
     inkscape:pageopacity="0.0"
     inkscape:pagecheckerboard="0"
     inkscape:deskcolor="#d1d1d1"
     inkscape:document-units="mm"
     inkscape:clip-to-page="true"
     inkscape:zoom="1"
     inkscape:cx="-52.5"
     inkscape:cy="-31"
     inkscape:window-width="1694"
     inkscape:window-height="1071"
     inkscape:window-x="0"
     inkscape:window-y="0"
     inkscape:window-maximized="1"
     inkscape:current-layer="layer1" /><defs
     id="defs1" /><g
     inkscape:label="Layer 1"
     inkscape:groupmode="layer"
     id="layer1"
     transform="translate(-118.73655,-156.72938)"><path
       style="fill:#ce0203;stroke-width:0.1"
       d="m 118.74434,189.71263 c -0.007,-0.0182 -0.01,-2.21192 -0.006,-4.87495 l 0.007,-4.84188 1.07157,-0.014 c 0.58936,-0.008 1.07456,-0.0166 1.07823,-0.0198 0.004,-0.003 0.004,-3.02707 0,-6.71966 l -0.007,-6.71381 -1.04873,-0.007 c -0.83946,-0.006 -1.05462,-0.014 -1.07825,-0.0425 -0.0215,-0.0259 -0.0277,-1.34762 -0.0228,-4.88788 l 0.007,-4.8523 5.81007,-0.007 c 5.50834,-0.006 5.81211,-0.004 5.84938,0.0397 0.0216,0.0255 0.17406,0.26068 0.33875,0.52261 0.16469,0.26194 0.77003,1.22039 1.34519,2.1299 0.57516,0.90951 1.7681,2.79665 2.65098,4.19365 0.88288,1.397 1.97813,3.12936 2.43389,3.84968 0.45576,0.72033 1.03893,1.64307 1.29594,2.05052 1.48439,2.35337 1.45409,2.30729 1.48502,2.25847 0.0255,-0.0402 0.0328,-5.1537 0.008,-5.21963 -0.0143,-0.0372 -0.13198,-0.0419 -1.05172,-0.0423 -0.56961,-2e-4 -1.05057,-0.01 -1.0688,-0.0215 -0.0264,-0.0168 -0.0318,-1.01185 -0.0265,-4.88777 l 0.007,-4.86673 h 6.91885 6.91885 l 0.007,4.85371 c 0.005,3.36757 -0.002,4.86224 -0.0211,4.88156 -0.0181,0.0181 -0.39559,0.0325 -1.07825,0.0411 l -1.05043,0.0132 v 6.72042 6.72042 l 1.07156,0.0132 1.07157,0.0132 v 4.86834 4.86833 l -5.81283,0.007 -5.81283,0.007 -0.0645,-0.0861 c -0.0354,-0.0473 -0.60945,-0.94925 -1.27555,-2.00427 -0.6661,-1.05503 -1.61807,-2.56117 -2.11549,-3.34698 -0.49743,-0.78582 -1.19009,-1.88119 -1.53925,-2.43417 -0.34917,-0.55298 -1.19214,-1.88648 -1.87328,-2.96334 -0.68114,-1.07685 -1.45306,-2.29724 -1.71536,-2.71198 -0.26231,-0.41473 -0.58258,-0.92075 -0.71172,-1.12448 -0.12913,-0.20373 -0.24919,-0.37041 -0.2668,-0.37041 -0.0445,0 -0.0603,5.18877 -0.0159,5.24219 0.0237,0.0286 0.23779,0.037 1.0783,0.0426 l 1.04873,0.007 0.007,4.87495 0.007,4.87494 h -6.91976 c -5.51146,0 -6.92231,-0.007 -6.93233,-0.0331 z m 13.41538,-4.84849 v -4.445 l -1.07156,-0.0132 -1.07156,-0.0132 -0.007,-3.58369 c -0.004,-1.99049 0.003,-3.59385 0.0162,-3.60656 0.0129,-0.0129 0.0841,0.0734 0.16271,0.19702 0.13385,0.21049 1.08983,1.722 2.63244,4.16219 0.39558,0.62574 0.90379,1.42941 1.12936,1.78594 0.22557,0.35652 0.73753,1.16615 1.13768,1.79916 0.40016,0.63302 1.31474,2.07963 2.0324,3.21469 0.71766,1.13506 1.70327,2.69478 2.19024,3.46604 0.48697,0.77126 0.90365,1.42313 0.92596,1.44859 0.0384,0.0438 0.33412,0.0463 5.5105,0.0463 4.96346,0 5.47143,-0.004 5.486,-0.0419 0.009,-0.023 0.0161,-2.01586 0.0161,-4.42854 0,-3.63143 -0.006,-4.39173 -0.0354,-4.41606 -0.0243,-0.0202 -0.36216,-0.0316 -1.07817,-0.0363 l -1.04277,-0.007 -0.007,-7.15037 c -0.004,-3.9327 -0.004,-7.153 0,-7.15623 0.004,-0.003 0.48886,-0.0122 1.07822,-0.0198 l 1.07157,-0.014 0.007,-4.41574 c 0.005,-3.24171 -0.001,-4.42527 -0.0231,-4.45161 -0.0249,-0.03 -1.08556,-0.0359 -6.49509,-0.0359 h -6.46532 l -0.0144,0.0595 c -0.008,0.0327 -0.0111,2.03597 -0.007,4.45162 l 0.007,4.39208 1.04873,0.007 c 0.8399,0.006 1.05461,0.014 1.07827,0.0425 0.0393,0.0474 0.0291,7.1737 -0.0103,7.1737 -0.0248,0 -0.18982,-0.25508 -1.09577,-1.69333 -0.20166,-0.32015 -0.72082,-1.14168 -1.15369,-1.82563 -0.43288,-0.68395 -1.35908,-2.14842 -2.05824,-3.25437 -0.69915,-1.10596 -1.49336,-2.36207 -1.76491,-2.79136 -1.53447,-2.42583 -2.30101,-3.63816 -2.43413,-3.84969 -0.645,-1.02493 -1.62993,-2.57981 -1.67181,-2.63922 l -0.0513,-0.0728 h -5.45861 c -4.56219,0 -5.46349,0.006 -5.48838,0.0359 -0.0219,0.0263 -0.028,1.2099 -0.0231,4.45162 l 0.007,4.41573 1.07156,0.014 c 0.58936,0.008 1.07456,0.0166 1.07823,0.0198 0.004,0.003 0.004,3.22352 0,7.15623 l -0.007,7.15036 -1.05696,0.007 c -0.80519,0.005 -1.06192,0.0147 -1.07778,0.0397 -0.0241,0.038 -0.0296,8.77853 -0.006,8.84128 0.0146,0.0381 0.60476,0.0413 6.50214,0.0352 l 6.48605,-0.007 z m -12.33057,3.76375 c -0.007,-0.0182 -0.01,-1.72381 -0.006,-3.79021 l 0.007,-3.75708 1.07156,-0.014 c 0.58936,-0.008 1.07454,-0.0166 1.07818,-0.0198 0.004,-0.003 0.007,-3.51155 0.007,-7.79628 0,-6.20328 -0.007,-7.79478 -0.0331,-7.81182 -0.0182,-0.0118 -0.50337,-0.0274 -1.07817,-0.0346 l -1.04511,-0.0132 v -3.78354 -3.78354 l 4.96094,-0.006 c 2.72852,-0.003 4.97394,0.003 4.98982,0.0132 0.0311,0.021 0.0821,0.10071 1.41825,2.21552 0.48727,0.77126 1.21339,1.92021 1.61361,2.55323 0.40023,0.63302 1.13033,1.78792 1.62245,2.56646 1.02423,1.62033 1.85142,2.92847 2.44266,3.86292 0.22558,0.35652 1.13254,1.79122 2.01546,3.18822 1.67949,2.65737 2.0868,3.29905 2.10727,3.31976 0.007,0.007 0.0234,-0.005 0.0369,-0.0265 0.0149,-0.0236 0.0248,-1.99854 0.025,-5.03104 4e-4,-4.50336 -0.004,-4.99619 -0.0412,-5.0337 -0.0364,-0.0364 -0.1717,-0.0416 -1.08488,-0.0416 h -1.04331 l 0.007,-3.79015 0.007,-3.79016 h 5.83407 5.83407 v 3.78354 3.78354 l -1.05043,0.0132 c -0.68201,0.009 -1.06018,0.023 -1.07822,0.0411 -0.0193,0.0193 -0.0258,2.40174 -0.0211,7.81844 l 0.007,7.79061 1.07156,0.0132 1.07157,0.0132 v 3.78354 3.78354 h -4.98576 -4.98575 l -0.99456,-1.57427 c -0.54701,-0.86585 -1.38617,-2.1934 -1.86481,-2.95011 -1.22969,-1.94409 -1.97781,-3.12722 -3.5468,-5.60916 -0.75434,-1.19327 -1.74044,-2.75299 -2.19134,-3.46604 -0.45089,-0.71306 -0.92876,-1.4691 -1.06194,-1.68011 -0.13318,-0.211 -0.52021,-0.82417 -0.86006,-1.3626 -0.33986,-0.53843 -0.63599,-1.00008 -0.65807,-1.02589 -0.0311,-0.0363 -0.045,-0.0393 -0.0615,-0.0132 -0.0118,0.0185 -0.0216,2.2855 -0.0218,5.0377 -3.4e-4,4.14738 0.006,5.00903 0.035,5.03339 0.0243,0.0202 0.36216,0.0316 1.07818,0.0363 l 1.04277,0.007 v 3.78354 3.78354 l -5.82826,0.007 c -4.64871,0.005 -5.83081,-3e-5 -5.84086,-0.0265 z m 33.08402,1.08285 c -0.35334,-0.13205 -0.5894,-0.45711 -0.58945,-0.81171 -4e-5,-0.25385 0.0727,-0.43245 0.24867,-0.61085 0.1971,-0.19978 0.3834,-0.27188 0.66231,-0.25634 0.33184,0.0185 0.58315,0.18841 0.73451,0.4966 0.0597,0.12149 0.0716,0.18087 0.0716,0.35736 0,0.1765 -0.0119,0.23588 -0.0716,0.35737 -0.088,0.17925 -0.25297,0.34971 -0.41364,0.42749 -0.15037,0.0728 -0.497,0.0944 -0.6424,0.0401 z m 0.46911,-0.16288 c 0.51748,-0.15368 0.65512,-0.83693 0.24014,-1.19214 -0.3664,-0.31363 -0.93813,-0.14246 -1.09881,0.32898 -0.12257,0.35959 0.12417,0.78265 0.51174,0.87742 0.1262,0.0309 0.20603,0.0276 0.34693,-0.0143 z m -0.5336,-0.18008 c -0.007,-0.0187 -0.01,-0.24787 -0.006,-0.50932 l 0.007,-0.47536 0.23999,-0.008 c 0.21044,-0.007 0.24867,-7e-4 0.31056,0.048 0.1414,0.11123 0.13719,0.31233 -0.01,0.46389 l -0.0818,0.0844 0.0946,0.18784 c 0.052,0.10332 0.0946,0.20084 0.0946,0.21673 0,0.0159 -0.0327,0.0251 -0.0728,0.0205 -0.0605,-0.007 -0.0906,-0.0418 -0.17859,-0.20681 -0.0775,-0.14525 -0.12179,-0.2007 -0.16537,-0.20689 -0.0565,-0.008 -0.0595,3e-4 -0.0595,0.1632 0,0.0944 -0.007,0.19049 -0.0161,0.21351 -0.0192,0.0501 -0.13889,0.0561 -0.15738,0.008 z m 0.41157,-0.60104 c 0.0933,-0.0933 0.053,-0.22092 -0.0782,-0.24714 -0.13035,-0.0261 -0.15998,-2e-4 -0.15998,0.13973 0,0.0688 0.008,0.13299 0.0176,0.14269 0.0368,0.0368 0.1697,0.0155 0.22049,-0.0353 z"
       id="path1" /></g></svg>
